%TF.GenerationSoftware,KiCad,Pcbnew,8.0.3*%
%TF.CreationDate,2024-07-12T15:36:06+02:00*%
%TF.ProjectId,Homekey,486f6d65-6b65-4792-9e6b-696361645f70,rev?*%
%TF.SameCoordinates,Original*%
%TF.FileFunction,Legend,Top*%
%TF.FilePolarity,Positive*%
%FSLAX46Y46*%
G04 Gerber Fmt 4.6, Leading zero omitted, Abs format (unit mm)*
G04 Created by KiCad (PCBNEW 8.0.3) date 2024-07-12 15:36:06*
%MOMM*%
%LPD*%
G01*
G04 APERTURE LIST*
%ADD10C,0.150000*%
%ADD11C,0.110000*%
%ADD12C,0.120000*%
G04 APERTURE END LIST*
D10*
X154236779Y-100836065D02*
X154570112Y-100836065D01*
X154712969Y-101359875D02*
X154236779Y-101359875D01*
X154236779Y-101359875D02*
X154236779Y-100359875D01*
X154236779Y-100359875D02*
X154712969Y-100359875D01*
X155093922Y-101312256D02*
X155236779Y-101359875D01*
X155236779Y-101359875D02*
X155474874Y-101359875D01*
X155474874Y-101359875D02*
X155570112Y-101312256D01*
X155570112Y-101312256D02*
X155617731Y-101264636D01*
X155617731Y-101264636D02*
X155665350Y-101169398D01*
X155665350Y-101169398D02*
X155665350Y-101074160D01*
X155665350Y-101074160D02*
X155617731Y-100978922D01*
X155617731Y-100978922D02*
X155570112Y-100931303D01*
X155570112Y-100931303D02*
X155474874Y-100883684D01*
X155474874Y-100883684D02*
X155284398Y-100836065D01*
X155284398Y-100836065D02*
X155189160Y-100788446D01*
X155189160Y-100788446D02*
X155141541Y-100740827D01*
X155141541Y-100740827D02*
X155093922Y-100645589D01*
X155093922Y-100645589D02*
X155093922Y-100550351D01*
X155093922Y-100550351D02*
X155141541Y-100455113D01*
X155141541Y-100455113D02*
X155189160Y-100407494D01*
X155189160Y-100407494D02*
X155284398Y-100359875D01*
X155284398Y-100359875D02*
X155522493Y-100359875D01*
X155522493Y-100359875D02*
X155665350Y-100407494D01*
X156093922Y-101359875D02*
X156093922Y-100359875D01*
X156093922Y-100359875D02*
X156474874Y-100359875D01*
X156474874Y-100359875D02*
X156570112Y-100407494D01*
X156570112Y-100407494D02*
X156617731Y-100455113D01*
X156617731Y-100455113D02*
X156665350Y-100550351D01*
X156665350Y-100550351D02*
X156665350Y-100693208D01*
X156665350Y-100693208D02*
X156617731Y-100788446D01*
X156617731Y-100788446D02*
X156570112Y-100836065D01*
X156570112Y-100836065D02*
X156474874Y-100883684D01*
X156474874Y-100883684D02*
X156093922Y-100883684D01*
X157855827Y-101359875D02*
X157855827Y-100359875D01*
X157855827Y-100836065D02*
X158427255Y-100836065D01*
X158427255Y-101359875D02*
X158427255Y-100359875D01*
X159046303Y-101359875D02*
X158951065Y-101312256D01*
X158951065Y-101312256D02*
X158903446Y-101264636D01*
X158903446Y-101264636D02*
X158855827Y-101169398D01*
X158855827Y-101169398D02*
X158855827Y-100883684D01*
X158855827Y-100883684D02*
X158903446Y-100788446D01*
X158903446Y-100788446D02*
X158951065Y-100740827D01*
X158951065Y-100740827D02*
X159046303Y-100693208D01*
X159046303Y-100693208D02*
X159189160Y-100693208D01*
X159189160Y-100693208D02*
X159284398Y-100740827D01*
X159284398Y-100740827D02*
X159332017Y-100788446D01*
X159332017Y-100788446D02*
X159379636Y-100883684D01*
X159379636Y-100883684D02*
X159379636Y-101169398D01*
X159379636Y-101169398D02*
X159332017Y-101264636D01*
X159332017Y-101264636D02*
X159284398Y-101312256D01*
X159284398Y-101312256D02*
X159189160Y-101359875D01*
X159189160Y-101359875D02*
X159046303Y-101359875D01*
X159808208Y-101359875D02*
X159808208Y-100693208D01*
X159808208Y-100788446D02*
X159855827Y-100740827D01*
X159855827Y-100740827D02*
X159951065Y-100693208D01*
X159951065Y-100693208D02*
X160093922Y-100693208D01*
X160093922Y-100693208D02*
X160189160Y-100740827D01*
X160189160Y-100740827D02*
X160236779Y-100836065D01*
X160236779Y-100836065D02*
X160236779Y-101359875D01*
X160236779Y-100836065D02*
X160284398Y-100740827D01*
X160284398Y-100740827D02*
X160379636Y-100693208D01*
X160379636Y-100693208D02*
X160522493Y-100693208D01*
X160522493Y-100693208D02*
X160617732Y-100740827D01*
X160617732Y-100740827D02*
X160665351Y-100836065D01*
X160665351Y-100836065D02*
X160665351Y-101359875D01*
X161522493Y-101312256D02*
X161427255Y-101359875D01*
X161427255Y-101359875D02*
X161236779Y-101359875D01*
X161236779Y-101359875D02*
X161141541Y-101312256D01*
X161141541Y-101312256D02*
X161093922Y-101217017D01*
X161093922Y-101217017D02*
X161093922Y-100836065D01*
X161093922Y-100836065D02*
X161141541Y-100740827D01*
X161141541Y-100740827D02*
X161236779Y-100693208D01*
X161236779Y-100693208D02*
X161427255Y-100693208D01*
X161427255Y-100693208D02*
X161522493Y-100740827D01*
X161522493Y-100740827D02*
X161570112Y-100836065D01*
X161570112Y-100836065D02*
X161570112Y-100931303D01*
X161570112Y-100931303D02*
X161093922Y-101026541D01*
X161998684Y-101359875D02*
X161998684Y-100359875D01*
X162570112Y-101359875D02*
X162141541Y-100788446D01*
X162570112Y-100359875D02*
X161998684Y-100931303D01*
X163379636Y-101312256D02*
X163284398Y-101359875D01*
X163284398Y-101359875D02*
X163093922Y-101359875D01*
X163093922Y-101359875D02*
X162998684Y-101312256D01*
X162998684Y-101312256D02*
X162951065Y-101217017D01*
X162951065Y-101217017D02*
X162951065Y-100836065D01*
X162951065Y-100836065D02*
X162998684Y-100740827D01*
X162998684Y-100740827D02*
X163093922Y-100693208D01*
X163093922Y-100693208D02*
X163284398Y-100693208D01*
X163284398Y-100693208D02*
X163379636Y-100740827D01*
X163379636Y-100740827D02*
X163427255Y-100836065D01*
X163427255Y-100836065D02*
X163427255Y-100931303D01*
X163427255Y-100931303D02*
X162951065Y-101026541D01*
X163760589Y-100693208D02*
X163998684Y-101359875D01*
X164236779Y-100693208D02*
X163998684Y-101359875D01*
X163998684Y-101359875D02*
X163903446Y-101597970D01*
X163903446Y-101597970D02*
X163855827Y-101645589D01*
X163855827Y-101645589D02*
X163760589Y-101693208D01*
X154093922Y-101969819D02*
X154427255Y-102969819D01*
X154427255Y-102969819D02*
X154760588Y-101969819D01*
X155474874Y-102922200D02*
X155379636Y-102969819D01*
X155379636Y-102969819D02*
X155189160Y-102969819D01*
X155189160Y-102969819D02*
X155093922Y-102922200D01*
X155093922Y-102922200D02*
X155046303Y-102826961D01*
X155046303Y-102826961D02*
X155046303Y-102446009D01*
X155046303Y-102446009D02*
X155093922Y-102350771D01*
X155093922Y-102350771D02*
X155189160Y-102303152D01*
X155189160Y-102303152D02*
X155379636Y-102303152D01*
X155379636Y-102303152D02*
X155474874Y-102350771D01*
X155474874Y-102350771D02*
X155522493Y-102446009D01*
X155522493Y-102446009D02*
X155522493Y-102541247D01*
X155522493Y-102541247D02*
X155046303Y-102636485D01*
X155951065Y-102969819D02*
X155951065Y-102303152D01*
X155951065Y-102493628D02*
X155998684Y-102398390D01*
X155998684Y-102398390D02*
X156046303Y-102350771D01*
X156046303Y-102350771D02*
X156141541Y-102303152D01*
X156141541Y-102303152D02*
X156236779Y-102303152D01*
X157522494Y-101969819D02*
X157617732Y-101969819D01*
X157617732Y-101969819D02*
X157712970Y-102017438D01*
X157712970Y-102017438D02*
X157760589Y-102065057D01*
X157760589Y-102065057D02*
X157808208Y-102160295D01*
X157808208Y-102160295D02*
X157855827Y-102350771D01*
X157855827Y-102350771D02*
X157855827Y-102588866D01*
X157855827Y-102588866D02*
X157808208Y-102779342D01*
X157808208Y-102779342D02*
X157760589Y-102874580D01*
X157760589Y-102874580D02*
X157712970Y-102922200D01*
X157712970Y-102922200D02*
X157617732Y-102969819D01*
X157617732Y-102969819D02*
X157522494Y-102969819D01*
X157522494Y-102969819D02*
X157427256Y-102922200D01*
X157427256Y-102922200D02*
X157379637Y-102874580D01*
X157379637Y-102874580D02*
X157332018Y-102779342D01*
X157332018Y-102779342D02*
X157284399Y-102588866D01*
X157284399Y-102588866D02*
X157284399Y-102350771D01*
X157284399Y-102350771D02*
X157332018Y-102160295D01*
X157332018Y-102160295D02*
X157379637Y-102065057D01*
X157379637Y-102065057D02*
X157427256Y-102017438D01*
X157427256Y-102017438D02*
X157522494Y-101969819D01*
X158284399Y-102874580D02*
X158332018Y-102922200D01*
X158332018Y-102922200D02*
X158284399Y-102969819D01*
X158284399Y-102969819D02*
X158236780Y-102922200D01*
X158236780Y-102922200D02*
X158284399Y-102874580D01*
X158284399Y-102874580D02*
X158284399Y-102969819D01*
X159284398Y-102969819D02*
X158712970Y-102969819D01*
X158998684Y-102969819D02*
X158998684Y-101969819D01*
X158998684Y-101969819D02*
X158903446Y-102112676D01*
X158903446Y-102112676D02*
X158808208Y-102207914D01*
X158808208Y-102207914D02*
X158712970Y-102255533D01*
X159665351Y-102684104D02*
X160141541Y-102684104D01*
X159570113Y-102969819D02*
X159903446Y-101969819D01*
X159903446Y-101969819D02*
X160236779Y-102969819D01*
X182236779Y-61969819D02*
X182236779Y-60969819D01*
X182236779Y-60969819D02*
X182808207Y-61969819D01*
X182808207Y-61969819D02*
X182808207Y-60969819D01*
X183284398Y-61969819D02*
X183284398Y-61303152D01*
X183284398Y-60969819D02*
X183236779Y-61017438D01*
X183236779Y-61017438D02*
X183284398Y-61065057D01*
X183284398Y-61065057D02*
X183332017Y-61017438D01*
X183332017Y-61017438D02*
X183284398Y-60969819D01*
X183284398Y-60969819D02*
X183284398Y-61065057D01*
X184189159Y-61303152D02*
X184189159Y-62112676D01*
X184189159Y-62112676D02*
X184141540Y-62207914D01*
X184141540Y-62207914D02*
X184093921Y-62255533D01*
X184093921Y-62255533D02*
X183998683Y-62303152D01*
X183998683Y-62303152D02*
X183855826Y-62303152D01*
X183855826Y-62303152D02*
X183760588Y-62255533D01*
X184189159Y-61922200D02*
X184093921Y-61969819D01*
X184093921Y-61969819D02*
X183903445Y-61969819D01*
X183903445Y-61969819D02*
X183808207Y-61922200D01*
X183808207Y-61922200D02*
X183760588Y-61874580D01*
X183760588Y-61874580D02*
X183712969Y-61779342D01*
X183712969Y-61779342D02*
X183712969Y-61493628D01*
X183712969Y-61493628D02*
X183760588Y-61398390D01*
X183760588Y-61398390D02*
X183808207Y-61350771D01*
X183808207Y-61350771D02*
X183903445Y-61303152D01*
X183903445Y-61303152D02*
X184093921Y-61303152D01*
X184093921Y-61303152D02*
X184189159Y-61350771D01*
X184665350Y-61969819D02*
X184665350Y-60969819D01*
X185093921Y-61969819D02*
X185093921Y-61446009D01*
X185093921Y-61446009D02*
X185046302Y-61350771D01*
X185046302Y-61350771D02*
X184951064Y-61303152D01*
X184951064Y-61303152D02*
X184808207Y-61303152D01*
X184808207Y-61303152D02*
X184712969Y-61350771D01*
X184712969Y-61350771D02*
X184665350Y-61398390D01*
X185427255Y-61303152D02*
X185808207Y-61303152D01*
X185570112Y-60969819D02*
X185570112Y-61826961D01*
X185570112Y-61826961D02*
X185617731Y-61922200D01*
X185617731Y-61922200D02*
X185712969Y-61969819D01*
X185712969Y-61969819D02*
X185808207Y-61969819D01*
X186141541Y-61969819D02*
X186141541Y-61303152D01*
X186141541Y-61398390D02*
X186189160Y-61350771D01*
X186189160Y-61350771D02*
X186284398Y-61303152D01*
X186284398Y-61303152D02*
X186427255Y-61303152D01*
X186427255Y-61303152D02*
X186522493Y-61350771D01*
X186522493Y-61350771D02*
X186570112Y-61446009D01*
X186570112Y-61446009D02*
X186570112Y-61969819D01*
X186570112Y-61446009D02*
X186617731Y-61350771D01*
X186617731Y-61350771D02*
X186712969Y-61303152D01*
X186712969Y-61303152D02*
X186855826Y-61303152D01*
X186855826Y-61303152D02*
X186951065Y-61350771D01*
X186951065Y-61350771D02*
X186998684Y-61446009D01*
X186998684Y-61446009D02*
X186998684Y-61969819D01*
X187903445Y-61969819D02*
X187903445Y-61446009D01*
X187903445Y-61446009D02*
X187855826Y-61350771D01*
X187855826Y-61350771D02*
X187760588Y-61303152D01*
X187760588Y-61303152D02*
X187570112Y-61303152D01*
X187570112Y-61303152D02*
X187474874Y-61350771D01*
X187903445Y-61922200D02*
X187808207Y-61969819D01*
X187808207Y-61969819D02*
X187570112Y-61969819D01*
X187570112Y-61969819D02*
X187474874Y-61922200D01*
X187474874Y-61922200D02*
X187427255Y-61826961D01*
X187427255Y-61826961D02*
X187427255Y-61731723D01*
X187427255Y-61731723D02*
X187474874Y-61636485D01*
X187474874Y-61636485D02*
X187570112Y-61588866D01*
X187570112Y-61588866D02*
X187808207Y-61588866D01*
X187808207Y-61588866D02*
X187903445Y-61541247D01*
X188379636Y-61969819D02*
X188379636Y-61303152D01*
X188379636Y-61493628D02*
X188427255Y-61398390D01*
X188427255Y-61398390D02*
X188474874Y-61350771D01*
X188474874Y-61350771D02*
X188570112Y-61303152D01*
X188570112Y-61303152D02*
X188665350Y-61303152D01*
X189379636Y-61922200D02*
X189284398Y-61969819D01*
X189284398Y-61969819D02*
X189093922Y-61969819D01*
X189093922Y-61969819D02*
X188998684Y-61922200D01*
X188998684Y-61922200D02*
X188951065Y-61826961D01*
X188951065Y-61826961D02*
X188951065Y-61446009D01*
X188951065Y-61446009D02*
X188998684Y-61350771D01*
X188998684Y-61350771D02*
X189093922Y-61303152D01*
X189093922Y-61303152D02*
X189284398Y-61303152D01*
X189284398Y-61303152D02*
X189379636Y-61350771D01*
X189379636Y-61350771D02*
X189427255Y-61446009D01*
X189427255Y-61446009D02*
X189427255Y-61541247D01*
X189427255Y-61541247D02*
X188951065Y-61636485D01*
X182760588Y-62517438D02*
X182665350Y-62469819D01*
X182665350Y-62469819D02*
X182522493Y-62469819D01*
X182522493Y-62469819D02*
X182379636Y-62517438D01*
X182379636Y-62517438D02*
X182284398Y-62612676D01*
X182284398Y-62612676D02*
X182236779Y-62707914D01*
X182236779Y-62707914D02*
X182189160Y-62898390D01*
X182189160Y-62898390D02*
X182189160Y-63041247D01*
X182189160Y-63041247D02*
X182236779Y-63231723D01*
X182236779Y-63231723D02*
X182284398Y-63326961D01*
X182284398Y-63326961D02*
X182379636Y-63422200D01*
X182379636Y-63422200D02*
X182522493Y-63469819D01*
X182522493Y-63469819D02*
X182617731Y-63469819D01*
X182617731Y-63469819D02*
X182760588Y-63422200D01*
X182760588Y-63422200D02*
X182808207Y-63374580D01*
X182808207Y-63374580D02*
X182808207Y-63041247D01*
X182808207Y-63041247D02*
X182617731Y-63041247D01*
X183617731Y-63422200D02*
X183522493Y-63469819D01*
X183522493Y-63469819D02*
X183332017Y-63469819D01*
X183332017Y-63469819D02*
X183236779Y-63422200D01*
X183236779Y-63422200D02*
X183189160Y-63326961D01*
X183189160Y-63326961D02*
X183189160Y-62946009D01*
X183189160Y-62946009D02*
X183236779Y-62850771D01*
X183236779Y-62850771D02*
X183332017Y-62803152D01*
X183332017Y-62803152D02*
X183522493Y-62803152D01*
X183522493Y-62803152D02*
X183617731Y-62850771D01*
X183617731Y-62850771D02*
X183665350Y-62946009D01*
X183665350Y-62946009D02*
X183665350Y-63041247D01*
X183665350Y-63041247D02*
X183189160Y-63136485D01*
X184093922Y-62803152D02*
X184093922Y-63469819D01*
X184093922Y-62898390D02*
X184141541Y-62850771D01*
X184141541Y-62850771D02*
X184236779Y-62803152D01*
X184236779Y-62803152D02*
X184379636Y-62803152D01*
X184379636Y-62803152D02*
X184474874Y-62850771D01*
X184474874Y-62850771D02*
X184522493Y-62946009D01*
X184522493Y-62946009D02*
X184522493Y-63469819D01*
X185379636Y-63422200D02*
X185284398Y-63469819D01*
X185284398Y-63469819D02*
X185093922Y-63469819D01*
X185093922Y-63469819D02*
X184998684Y-63422200D01*
X184998684Y-63422200D02*
X184951065Y-63326961D01*
X184951065Y-63326961D02*
X184951065Y-62946009D01*
X184951065Y-62946009D02*
X184998684Y-62850771D01*
X184998684Y-62850771D02*
X185093922Y-62803152D01*
X185093922Y-62803152D02*
X185284398Y-62803152D01*
X185284398Y-62803152D02*
X185379636Y-62850771D01*
X185379636Y-62850771D02*
X185427255Y-62946009D01*
X185427255Y-62946009D02*
X185427255Y-63041247D01*
X185427255Y-63041247D02*
X184951065Y-63136485D01*
X185855827Y-63469819D02*
X185855827Y-62803152D01*
X185855827Y-62993628D02*
X185903446Y-62898390D01*
X185903446Y-62898390D02*
X185951065Y-62850771D01*
X185951065Y-62850771D02*
X186046303Y-62803152D01*
X186046303Y-62803152D02*
X186141541Y-62803152D01*
X186903446Y-63469819D02*
X186903446Y-62946009D01*
X186903446Y-62946009D02*
X186855827Y-62850771D01*
X186855827Y-62850771D02*
X186760589Y-62803152D01*
X186760589Y-62803152D02*
X186570113Y-62803152D01*
X186570113Y-62803152D02*
X186474875Y-62850771D01*
X186903446Y-63422200D02*
X186808208Y-63469819D01*
X186808208Y-63469819D02*
X186570113Y-63469819D01*
X186570113Y-63469819D02*
X186474875Y-63422200D01*
X186474875Y-63422200D02*
X186427256Y-63326961D01*
X186427256Y-63326961D02*
X186427256Y-63231723D01*
X186427256Y-63231723D02*
X186474875Y-63136485D01*
X186474875Y-63136485D02*
X186570113Y-63088866D01*
X186570113Y-63088866D02*
X186808208Y-63088866D01*
X186808208Y-63088866D02*
X186903446Y-63041247D01*
X187236780Y-62803152D02*
X187617732Y-62803152D01*
X187379637Y-62469819D02*
X187379637Y-63326961D01*
X187379637Y-63326961D02*
X187427256Y-63422200D01*
X187427256Y-63422200D02*
X187522494Y-63469819D01*
X187522494Y-63469819D02*
X187617732Y-63469819D01*
X188093923Y-63469819D02*
X187998685Y-63422200D01*
X187998685Y-63422200D02*
X187951066Y-63374580D01*
X187951066Y-63374580D02*
X187903447Y-63279342D01*
X187903447Y-63279342D02*
X187903447Y-62993628D01*
X187903447Y-62993628D02*
X187951066Y-62898390D01*
X187951066Y-62898390D02*
X187998685Y-62850771D01*
X187998685Y-62850771D02*
X188093923Y-62803152D01*
X188093923Y-62803152D02*
X188236780Y-62803152D01*
X188236780Y-62803152D02*
X188332018Y-62850771D01*
X188332018Y-62850771D02*
X188379637Y-62898390D01*
X188379637Y-62898390D02*
X188427256Y-62993628D01*
X188427256Y-62993628D02*
X188427256Y-63279342D01*
X188427256Y-63279342D02*
X188379637Y-63374580D01*
X188379637Y-63374580D02*
X188332018Y-63422200D01*
X188332018Y-63422200D02*
X188236780Y-63469819D01*
X188236780Y-63469819D02*
X188093923Y-63469819D01*
X188855828Y-63469819D02*
X188855828Y-62803152D01*
X188855828Y-62993628D02*
X188903447Y-62898390D01*
X188903447Y-62898390D02*
X188951066Y-62850771D01*
X188951066Y-62850771D02*
X189046304Y-62803152D01*
X189046304Y-62803152D02*
X189141542Y-62803152D01*
D11*
X166883333Y-96418113D02*
X166650000Y-96084780D01*
X166483333Y-96418113D02*
X166483333Y-95718113D01*
X166483333Y-95718113D02*
X166750000Y-95718113D01*
X166750000Y-95718113D02*
X166816667Y-95751446D01*
X166816667Y-95751446D02*
X166850000Y-95784780D01*
X166850000Y-95784780D02*
X166883333Y-95851446D01*
X166883333Y-95851446D02*
X166883333Y-95951446D01*
X166883333Y-95951446D02*
X166850000Y-96018113D01*
X166850000Y-96018113D02*
X166816667Y-96051446D01*
X166816667Y-96051446D02*
X166750000Y-96084780D01*
X166750000Y-96084780D02*
X166483333Y-96084780D01*
X167216667Y-96418113D02*
X167350000Y-96418113D01*
X167350000Y-96418113D02*
X167416667Y-96384780D01*
X167416667Y-96384780D02*
X167450000Y-96351446D01*
X167450000Y-96351446D02*
X167516667Y-96251446D01*
X167516667Y-96251446D02*
X167550000Y-96118113D01*
X167550000Y-96118113D02*
X167550000Y-95851446D01*
X167550000Y-95851446D02*
X167516667Y-95784780D01*
X167516667Y-95784780D02*
X167483333Y-95751446D01*
X167483333Y-95751446D02*
X167416667Y-95718113D01*
X167416667Y-95718113D02*
X167283333Y-95718113D01*
X167283333Y-95718113D02*
X167216667Y-95751446D01*
X167216667Y-95751446D02*
X167183333Y-95784780D01*
X167183333Y-95784780D02*
X167150000Y-95851446D01*
X167150000Y-95851446D02*
X167150000Y-96018113D01*
X167150000Y-96018113D02*
X167183333Y-96084780D01*
X167183333Y-96084780D02*
X167216667Y-96118113D01*
X167216667Y-96118113D02*
X167283333Y-96151446D01*
X167283333Y-96151446D02*
X167416667Y-96151446D01*
X167416667Y-96151446D02*
X167483333Y-96118113D01*
X167483333Y-96118113D02*
X167516667Y-96084780D01*
X167516667Y-96084780D02*
X167550000Y-96018113D01*
X187501446Y-66450000D02*
X187534780Y-66483333D01*
X187534780Y-66483333D02*
X187568113Y-66583333D01*
X187568113Y-66583333D02*
X187568113Y-66650000D01*
X187568113Y-66650000D02*
X187534780Y-66750000D01*
X187534780Y-66750000D02*
X187468113Y-66816667D01*
X187468113Y-66816667D02*
X187401446Y-66850000D01*
X187401446Y-66850000D02*
X187268113Y-66883333D01*
X187268113Y-66883333D02*
X187168113Y-66883333D01*
X187168113Y-66883333D02*
X187034780Y-66850000D01*
X187034780Y-66850000D02*
X186968113Y-66816667D01*
X186968113Y-66816667D02*
X186901446Y-66750000D01*
X186901446Y-66750000D02*
X186868113Y-66650000D01*
X186868113Y-66650000D02*
X186868113Y-66583333D01*
X186868113Y-66583333D02*
X186901446Y-66483333D01*
X186901446Y-66483333D02*
X186934780Y-66450000D01*
X186934780Y-66183333D02*
X186901446Y-66150000D01*
X186901446Y-66150000D02*
X186868113Y-66083333D01*
X186868113Y-66083333D02*
X186868113Y-65916667D01*
X186868113Y-65916667D02*
X186901446Y-65850000D01*
X186901446Y-65850000D02*
X186934780Y-65816667D01*
X186934780Y-65816667D02*
X187001446Y-65783333D01*
X187001446Y-65783333D02*
X187068113Y-65783333D01*
X187068113Y-65783333D02*
X187168113Y-65816667D01*
X187168113Y-65816667D02*
X187568113Y-66216667D01*
X187568113Y-66216667D02*
X187568113Y-65783333D01*
X186934780Y-65516666D02*
X186901446Y-65483333D01*
X186901446Y-65483333D02*
X186868113Y-65416666D01*
X186868113Y-65416666D02*
X186868113Y-65250000D01*
X186868113Y-65250000D02*
X186901446Y-65183333D01*
X186901446Y-65183333D02*
X186934780Y-65150000D01*
X186934780Y-65150000D02*
X187001446Y-65116666D01*
X187001446Y-65116666D02*
X187068113Y-65116666D01*
X187068113Y-65116666D02*
X187168113Y-65150000D01*
X187168113Y-65150000D02*
X187568113Y-65550000D01*
X187568113Y-65550000D02*
X187568113Y-65116666D01*
X157933333Y-85301446D02*
X157866666Y-85268113D01*
X157866666Y-85268113D02*
X157766666Y-85268113D01*
X157766666Y-85268113D02*
X157666666Y-85301446D01*
X157666666Y-85301446D02*
X157600000Y-85368113D01*
X157600000Y-85368113D02*
X157566666Y-85434780D01*
X157566666Y-85434780D02*
X157533333Y-85568113D01*
X157533333Y-85568113D02*
X157533333Y-85668113D01*
X157533333Y-85668113D02*
X157566666Y-85801446D01*
X157566666Y-85801446D02*
X157600000Y-85868113D01*
X157600000Y-85868113D02*
X157666666Y-85934780D01*
X157666666Y-85934780D02*
X157766666Y-85968113D01*
X157766666Y-85968113D02*
X157833333Y-85968113D01*
X157833333Y-85968113D02*
X157933333Y-85934780D01*
X157933333Y-85934780D02*
X157966666Y-85901446D01*
X157966666Y-85901446D02*
X157966666Y-85668113D01*
X157966666Y-85668113D02*
X157833333Y-85668113D01*
X158266666Y-85968113D02*
X158266666Y-85268113D01*
X158266666Y-85268113D02*
X158666666Y-85968113D01*
X158666666Y-85968113D02*
X158666666Y-85268113D01*
X158999999Y-85968113D02*
X158999999Y-85268113D01*
X158999999Y-85268113D02*
X159166666Y-85268113D01*
X159166666Y-85268113D02*
X159266666Y-85301446D01*
X159266666Y-85301446D02*
X159333333Y-85368113D01*
X159333333Y-85368113D02*
X159366666Y-85434780D01*
X159366666Y-85434780D02*
X159399999Y-85568113D01*
X159399999Y-85568113D02*
X159399999Y-85668113D01*
X159399999Y-85668113D02*
X159366666Y-85801446D01*
X159366666Y-85801446D02*
X159333333Y-85868113D01*
X159333333Y-85868113D02*
X159266666Y-85934780D01*
X159266666Y-85934780D02*
X159166666Y-85968113D01*
X159166666Y-85968113D02*
X158999999Y-85968113D01*
X160066666Y-85968113D02*
X159666666Y-85968113D01*
X159866666Y-85968113D02*
X159866666Y-85268113D01*
X159866666Y-85268113D02*
X159799999Y-85368113D01*
X159799999Y-85368113D02*
X159733333Y-85434780D01*
X159733333Y-85434780D02*
X159666666Y-85468113D01*
X167299999Y-86851446D02*
X167266666Y-86884780D01*
X167266666Y-86884780D02*
X167166666Y-86918113D01*
X167166666Y-86918113D02*
X167099999Y-86918113D01*
X167099999Y-86918113D02*
X166999999Y-86884780D01*
X166999999Y-86884780D02*
X166933333Y-86818113D01*
X166933333Y-86818113D02*
X166899999Y-86751446D01*
X166899999Y-86751446D02*
X166866666Y-86618113D01*
X166866666Y-86618113D02*
X166866666Y-86518113D01*
X166866666Y-86518113D02*
X166899999Y-86384780D01*
X166899999Y-86384780D02*
X166933333Y-86318113D01*
X166933333Y-86318113D02*
X166999999Y-86251446D01*
X166999999Y-86251446D02*
X167099999Y-86218113D01*
X167099999Y-86218113D02*
X167166666Y-86218113D01*
X167166666Y-86218113D02*
X167266666Y-86251446D01*
X167266666Y-86251446D02*
X167299999Y-86284780D01*
X167533333Y-86218113D02*
X167966666Y-86218113D01*
X167966666Y-86218113D02*
X167733333Y-86484780D01*
X167733333Y-86484780D02*
X167833333Y-86484780D01*
X167833333Y-86484780D02*
X167899999Y-86518113D01*
X167899999Y-86518113D02*
X167933333Y-86551446D01*
X167933333Y-86551446D02*
X167966666Y-86618113D01*
X167966666Y-86618113D02*
X167966666Y-86784780D01*
X167966666Y-86784780D02*
X167933333Y-86851446D01*
X167933333Y-86851446D02*
X167899999Y-86884780D01*
X167899999Y-86884780D02*
X167833333Y-86918113D01*
X167833333Y-86918113D02*
X167633333Y-86918113D01*
X167633333Y-86918113D02*
X167566666Y-86884780D01*
X167566666Y-86884780D02*
X167533333Y-86851446D01*
X168400000Y-86218113D02*
X168466666Y-86218113D01*
X168466666Y-86218113D02*
X168533333Y-86251446D01*
X168533333Y-86251446D02*
X168566666Y-86284780D01*
X168566666Y-86284780D02*
X168600000Y-86351446D01*
X168600000Y-86351446D02*
X168633333Y-86484780D01*
X168633333Y-86484780D02*
X168633333Y-86651446D01*
X168633333Y-86651446D02*
X168600000Y-86784780D01*
X168600000Y-86784780D02*
X168566666Y-86851446D01*
X168566666Y-86851446D02*
X168533333Y-86884780D01*
X168533333Y-86884780D02*
X168466666Y-86918113D01*
X168466666Y-86918113D02*
X168400000Y-86918113D01*
X168400000Y-86918113D02*
X168333333Y-86884780D01*
X168333333Y-86884780D02*
X168300000Y-86851446D01*
X168300000Y-86851446D02*
X168266666Y-86784780D01*
X168266666Y-86784780D02*
X168233333Y-86651446D01*
X168233333Y-86651446D02*
X168233333Y-86484780D01*
X168233333Y-86484780D02*
X168266666Y-86351446D01*
X168266666Y-86351446D02*
X168300000Y-86284780D01*
X168300000Y-86284780D02*
X168333333Y-86251446D01*
X168333333Y-86251446D02*
X168400000Y-86218113D01*
X164458333Y-90918113D02*
X164225000Y-90584780D01*
X164058333Y-90918113D02*
X164058333Y-90218113D01*
X164058333Y-90218113D02*
X164325000Y-90218113D01*
X164325000Y-90218113D02*
X164391667Y-90251446D01*
X164391667Y-90251446D02*
X164425000Y-90284780D01*
X164425000Y-90284780D02*
X164458333Y-90351446D01*
X164458333Y-90351446D02*
X164458333Y-90451446D01*
X164458333Y-90451446D02*
X164425000Y-90518113D01*
X164425000Y-90518113D02*
X164391667Y-90551446D01*
X164391667Y-90551446D02*
X164325000Y-90584780D01*
X164325000Y-90584780D02*
X164058333Y-90584780D01*
X165058333Y-90218113D02*
X164925000Y-90218113D01*
X164925000Y-90218113D02*
X164858333Y-90251446D01*
X164858333Y-90251446D02*
X164825000Y-90284780D01*
X164825000Y-90284780D02*
X164758333Y-90384780D01*
X164758333Y-90384780D02*
X164725000Y-90518113D01*
X164725000Y-90518113D02*
X164725000Y-90784780D01*
X164725000Y-90784780D02*
X164758333Y-90851446D01*
X164758333Y-90851446D02*
X164791667Y-90884780D01*
X164791667Y-90884780D02*
X164858333Y-90918113D01*
X164858333Y-90918113D02*
X164991667Y-90918113D01*
X164991667Y-90918113D02*
X165058333Y-90884780D01*
X165058333Y-90884780D02*
X165091667Y-90851446D01*
X165091667Y-90851446D02*
X165125000Y-90784780D01*
X165125000Y-90784780D02*
X165125000Y-90618113D01*
X165125000Y-90618113D02*
X165091667Y-90551446D01*
X165091667Y-90551446D02*
X165058333Y-90518113D01*
X165058333Y-90518113D02*
X164991667Y-90484780D01*
X164991667Y-90484780D02*
X164858333Y-90484780D01*
X164858333Y-90484780D02*
X164791667Y-90518113D01*
X164791667Y-90518113D02*
X164758333Y-90551446D01*
X164758333Y-90551446D02*
X164725000Y-90618113D01*
X176049999Y-61601446D02*
X176016666Y-61634780D01*
X176016666Y-61634780D02*
X175916666Y-61668113D01*
X175916666Y-61668113D02*
X175849999Y-61668113D01*
X175849999Y-61668113D02*
X175749999Y-61634780D01*
X175749999Y-61634780D02*
X175683333Y-61568113D01*
X175683333Y-61568113D02*
X175649999Y-61501446D01*
X175649999Y-61501446D02*
X175616666Y-61368113D01*
X175616666Y-61368113D02*
X175616666Y-61268113D01*
X175616666Y-61268113D02*
X175649999Y-61134780D01*
X175649999Y-61134780D02*
X175683333Y-61068113D01*
X175683333Y-61068113D02*
X175749999Y-61001446D01*
X175749999Y-61001446D02*
X175849999Y-60968113D01*
X175849999Y-60968113D02*
X175916666Y-60968113D01*
X175916666Y-60968113D02*
X176016666Y-61001446D01*
X176016666Y-61001446D02*
X176049999Y-61034780D01*
X176716666Y-61668113D02*
X176316666Y-61668113D01*
X176516666Y-61668113D02*
X176516666Y-60968113D01*
X176516666Y-60968113D02*
X176449999Y-61068113D01*
X176449999Y-61068113D02*
X176383333Y-61134780D01*
X176383333Y-61134780D02*
X176316666Y-61168113D01*
X177350000Y-60968113D02*
X177016666Y-60968113D01*
X177016666Y-60968113D02*
X176983333Y-61301446D01*
X176983333Y-61301446D02*
X177016666Y-61268113D01*
X177016666Y-61268113D02*
X177083333Y-61234780D01*
X177083333Y-61234780D02*
X177250000Y-61234780D01*
X177250000Y-61234780D02*
X177316666Y-61268113D01*
X177316666Y-61268113D02*
X177350000Y-61301446D01*
X177350000Y-61301446D02*
X177383333Y-61368113D01*
X177383333Y-61368113D02*
X177383333Y-61534780D01*
X177383333Y-61534780D02*
X177350000Y-61601446D01*
X177350000Y-61601446D02*
X177316666Y-61634780D01*
X177316666Y-61634780D02*
X177250000Y-61668113D01*
X177250000Y-61668113D02*
X177083333Y-61668113D01*
X177083333Y-61668113D02*
X177016666Y-61634780D01*
X177016666Y-61634780D02*
X176983333Y-61601446D01*
X165001446Y-63666666D02*
X165034780Y-63699999D01*
X165034780Y-63699999D02*
X165068113Y-63799999D01*
X165068113Y-63799999D02*
X165068113Y-63866666D01*
X165068113Y-63866666D02*
X165034780Y-63966666D01*
X165034780Y-63966666D02*
X164968113Y-64033333D01*
X164968113Y-64033333D02*
X164901446Y-64066666D01*
X164901446Y-64066666D02*
X164768113Y-64099999D01*
X164768113Y-64099999D02*
X164668113Y-64099999D01*
X164668113Y-64099999D02*
X164534780Y-64066666D01*
X164534780Y-64066666D02*
X164468113Y-64033333D01*
X164468113Y-64033333D02*
X164401446Y-63966666D01*
X164401446Y-63966666D02*
X164368113Y-63866666D01*
X164368113Y-63866666D02*
X164368113Y-63799999D01*
X164368113Y-63799999D02*
X164401446Y-63699999D01*
X164401446Y-63699999D02*
X164434780Y-63666666D01*
X164601446Y-63066666D02*
X165068113Y-63066666D01*
X164334780Y-63233333D02*
X164834780Y-63399999D01*
X164834780Y-63399999D02*
X164834780Y-62966666D01*
X182741666Y-78968113D02*
X182741666Y-79534780D01*
X182741666Y-79534780D02*
X182775000Y-79601446D01*
X182775000Y-79601446D02*
X182808333Y-79634780D01*
X182808333Y-79634780D02*
X182875000Y-79668113D01*
X182875000Y-79668113D02*
X183008333Y-79668113D01*
X183008333Y-79668113D02*
X183075000Y-79634780D01*
X183075000Y-79634780D02*
X183108333Y-79601446D01*
X183108333Y-79601446D02*
X183141666Y-79534780D01*
X183141666Y-79534780D02*
X183141666Y-78968113D01*
X183408333Y-78968113D02*
X183841666Y-78968113D01*
X183841666Y-78968113D02*
X183608333Y-79234780D01*
X183608333Y-79234780D02*
X183708333Y-79234780D01*
X183708333Y-79234780D02*
X183774999Y-79268113D01*
X183774999Y-79268113D02*
X183808333Y-79301446D01*
X183808333Y-79301446D02*
X183841666Y-79368113D01*
X183841666Y-79368113D02*
X183841666Y-79534780D01*
X183841666Y-79534780D02*
X183808333Y-79601446D01*
X183808333Y-79601446D02*
X183774999Y-79634780D01*
X183774999Y-79634780D02*
X183708333Y-79668113D01*
X183708333Y-79668113D02*
X183508333Y-79668113D01*
X183508333Y-79668113D02*
X183441666Y-79634780D01*
X183441666Y-79634780D02*
X183408333Y-79601446D01*
X167001446Y-79700000D02*
X167034780Y-79733333D01*
X167034780Y-79733333D02*
X167068113Y-79833333D01*
X167068113Y-79833333D02*
X167068113Y-79900000D01*
X167068113Y-79900000D02*
X167034780Y-80000000D01*
X167034780Y-80000000D02*
X166968113Y-80066667D01*
X166968113Y-80066667D02*
X166901446Y-80100000D01*
X166901446Y-80100000D02*
X166768113Y-80133333D01*
X166768113Y-80133333D02*
X166668113Y-80133333D01*
X166668113Y-80133333D02*
X166534780Y-80100000D01*
X166534780Y-80100000D02*
X166468113Y-80066667D01*
X166468113Y-80066667D02*
X166401446Y-80000000D01*
X166401446Y-80000000D02*
X166368113Y-79900000D01*
X166368113Y-79900000D02*
X166368113Y-79833333D01*
X166368113Y-79833333D02*
X166401446Y-79733333D01*
X166401446Y-79733333D02*
X166434780Y-79700000D01*
X167068113Y-79033333D02*
X167068113Y-79433333D01*
X167068113Y-79233333D02*
X166368113Y-79233333D01*
X166368113Y-79233333D02*
X166468113Y-79300000D01*
X166468113Y-79300000D02*
X166534780Y-79366667D01*
X166534780Y-79366667D02*
X166568113Y-79433333D01*
X166368113Y-78800000D02*
X166368113Y-78366666D01*
X166368113Y-78366666D02*
X166634780Y-78600000D01*
X166634780Y-78600000D02*
X166634780Y-78500000D01*
X166634780Y-78500000D02*
X166668113Y-78433333D01*
X166668113Y-78433333D02*
X166701446Y-78400000D01*
X166701446Y-78400000D02*
X166768113Y-78366666D01*
X166768113Y-78366666D02*
X166934780Y-78366666D01*
X166934780Y-78366666D02*
X167001446Y-78400000D01*
X167001446Y-78400000D02*
X167034780Y-78433333D01*
X167034780Y-78433333D02*
X167068113Y-78500000D01*
X167068113Y-78500000D02*
X167068113Y-78700000D01*
X167068113Y-78700000D02*
X167034780Y-78766666D01*
X167034780Y-78766666D02*
X167001446Y-78800000D01*
X189501446Y-97550000D02*
X189534780Y-97583333D01*
X189534780Y-97583333D02*
X189568113Y-97683333D01*
X189568113Y-97683333D02*
X189568113Y-97750000D01*
X189568113Y-97750000D02*
X189534780Y-97850000D01*
X189534780Y-97850000D02*
X189468113Y-97916667D01*
X189468113Y-97916667D02*
X189401446Y-97950000D01*
X189401446Y-97950000D02*
X189268113Y-97983333D01*
X189268113Y-97983333D02*
X189168113Y-97983333D01*
X189168113Y-97983333D02*
X189034780Y-97950000D01*
X189034780Y-97950000D02*
X188968113Y-97916667D01*
X188968113Y-97916667D02*
X188901446Y-97850000D01*
X188901446Y-97850000D02*
X188868113Y-97750000D01*
X188868113Y-97750000D02*
X188868113Y-97683333D01*
X188868113Y-97683333D02*
X188901446Y-97583333D01*
X188901446Y-97583333D02*
X188934780Y-97550000D01*
X188868113Y-97316667D02*
X188868113Y-96883333D01*
X188868113Y-96883333D02*
X189134780Y-97116667D01*
X189134780Y-97116667D02*
X189134780Y-97016667D01*
X189134780Y-97016667D02*
X189168113Y-96950000D01*
X189168113Y-96950000D02*
X189201446Y-96916667D01*
X189201446Y-96916667D02*
X189268113Y-96883333D01*
X189268113Y-96883333D02*
X189434780Y-96883333D01*
X189434780Y-96883333D02*
X189501446Y-96916667D01*
X189501446Y-96916667D02*
X189534780Y-96950000D01*
X189534780Y-96950000D02*
X189568113Y-97016667D01*
X189568113Y-97016667D02*
X189568113Y-97216667D01*
X189568113Y-97216667D02*
X189534780Y-97283333D01*
X189534780Y-97283333D02*
X189501446Y-97316667D01*
X188934780Y-96616666D02*
X188901446Y-96583333D01*
X188901446Y-96583333D02*
X188868113Y-96516666D01*
X188868113Y-96516666D02*
X188868113Y-96350000D01*
X188868113Y-96350000D02*
X188901446Y-96283333D01*
X188901446Y-96283333D02*
X188934780Y-96250000D01*
X188934780Y-96250000D02*
X189001446Y-96216666D01*
X189001446Y-96216666D02*
X189068113Y-96216666D01*
X189068113Y-96216666D02*
X189168113Y-96250000D01*
X189168113Y-96250000D02*
X189568113Y-96650000D01*
X189568113Y-96650000D02*
X189568113Y-96216666D01*
X167701446Y-79333333D02*
X167701446Y-79566666D01*
X168068113Y-79566666D02*
X167368113Y-79566666D01*
X167368113Y-79566666D02*
X167368113Y-79233333D01*
X167701446Y-78733333D02*
X167734780Y-78633333D01*
X167734780Y-78633333D02*
X167768113Y-78599999D01*
X167768113Y-78599999D02*
X167834780Y-78566666D01*
X167834780Y-78566666D02*
X167934780Y-78566666D01*
X167934780Y-78566666D02*
X168001446Y-78599999D01*
X168001446Y-78599999D02*
X168034780Y-78633333D01*
X168034780Y-78633333D02*
X168068113Y-78699999D01*
X168068113Y-78699999D02*
X168068113Y-78966666D01*
X168068113Y-78966666D02*
X167368113Y-78966666D01*
X167368113Y-78966666D02*
X167368113Y-78733333D01*
X167368113Y-78733333D02*
X167401446Y-78666666D01*
X167401446Y-78666666D02*
X167434780Y-78633333D01*
X167434780Y-78633333D02*
X167501446Y-78599999D01*
X167501446Y-78599999D02*
X167568113Y-78599999D01*
X167568113Y-78599999D02*
X167634780Y-78633333D01*
X167634780Y-78633333D02*
X167668113Y-78666666D01*
X167668113Y-78666666D02*
X167701446Y-78733333D01*
X167701446Y-78733333D02*
X167701446Y-78966666D01*
X168068113Y-77899999D02*
X168068113Y-78299999D01*
X168068113Y-78099999D02*
X167368113Y-78099999D01*
X167368113Y-78099999D02*
X167468113Y-78166666D01*
X167468113Y-78166666D02*
X167534780Y-78233333D01*
X167534780Y-78233333D02*
X167568113Y-78299999D01*
X179483333Y-67268113D02*
X179149999Y-67268113D01*
X179149999Y-67268113D02*
X179149999Y-66568113D01*
X180083333Y-67268113D02*
X179683333Y-67268113D01*
X179883333Y-67268113D02*
X179883333Y-66568113D01*
X179883333Y-66568113D02*
X179816666Y-66668113D01*
X179816666Y-66668113D02*
X179750000Y-66734780D01*
X179750000Y-66734780D02*
X179683333Y-66768113D01*
X171833333Y-61801446D02*
X171800000Y-61834780D01*
X171800000Y-61834780D02*
X171700000Y-61868113D01*
X171700000Y-61868113D02*
X171633333Y-61868113D01*
X171633333Y-61868113D02*
X171533333Y-61834780D01*
X171533333Y-61834780D02*
X171466667Y-61768113D01*
X171466667Y-61768113D02*
X171433333Y-61701446D01*
X171433333Y-61701446D02*
X171400000Y-61568113D01*
X171400000Y-61568113D02*
X171400000Y-61468113D01*
X171400000Y-61468113D02*
X171433333Y-61334780D01*
X171433333Y-61334780D02*
X171466667Y-61268113D01*
X171466667Y-61268113D02*
X171533333Y-61201446D01*
X171533333Y-61201446D02*
X171633333Y-61168113D01*
X171633333Y-61168113D02*
X171700000Y-61168113D01*
X171700000Y-61168113D02*
X171800000Y-61201446D01*
X171800000Y-61201446D02*
X171833333Y-61234780D01*
X172500000Y-61868113D02*
X172100000Y-61868113D01*
X172300000Y-61868113D02*
X172300000Y-61168113D01*
X172300000Y-61168113D02*
X172233333Y-61268113D01*
X172233333Y-61268113D02*
X172166667Y-61334780D01*
X172166667Y-61334780D02*
X172100000Y-61368113D01*
X182274999Y-85101446D02*
X182241666Y-85134780D01*
X182241666Y-85134780D02*
X182141666Y-85168113D01*
X182141666Y-85168113D02*
X182074999Y-85168113D01*
X182074999Y-85168113D02*
X181974999Y-85134780D01*
X181974999Y-85134780D02*
X181908333Y-85068113D01*
X181908333Y-85068113D02*
X181874999Y-85001446D01*
X181874999Y-85001446D02*
X181841666Y-84868113D01*
X181841666Y-84868113D02*
X181841666Y-84768113D01*
X181841666Y-84768113D02*
X181874999Y-84634780D01*
X181874999Y-84634780D02*
X181908333Y-84568113D01*
X181908333Y-84568113D02*
X181974999Y-84501446D01*
X181974999Y-84501446D02*
X182074999Y-84468113D01*
X182074999Y-84468113D02*
X182141666Y-84468113D01*
X182141666Y-84468113D02*
X182241666Y-84501446D01*
X182241666Y-84501446D02*
X182274999Y-84534780D01*
X182541666Y-84534780D02*
X182574999Y-84501446D01*
X182574999Y-84501446D02*
X182641666Y-84468113D01*
X182641666Y-84468113D02*
X182808333Y-84468113D01*
X182808333Y-84468113D02*
X182874999Y-84501446D01*
X182874999Y-84501446D02*
X182908333Y-84534780D01*
X182908333Y-84534780D02*
X182941666Y-84601446D01*
X182941666Y-84601446D02*
X182941666Y-84668113D01*
X182941666Y-84668113D02*
X182908333Y-84768113D01*
X182908333Y-84768113D02*
X182508333Y-85168113D01*
X182508333Y-85168113D02*
X182941666Y-85168113D01*
X183175000Y-84468113D02*
X183641666Y-84468113D01*
X183641666Y-84468113D02*
X183341666Y-85168113D01*
X176049999Y-78351446D02*
X176016666Y-78384780D01*
X176016666Y-78384780D02*
X175916666Y-78418113D01*
X175916666Y-78418113D02*
X175849999Y-78418113D01*
X175849999Y-78418113D02*
X175749999Y-78384780D01*
X175749999Y-78384780D02*
X175683333Y-78318113D01*
X175683333Y-78318113D02*
X175649999Y-78251446D01*
X175649999Y-78251446D02*
X175616666Y-78118113D01*
X175616666Y-78118113D02*
X175616666Y-78018113D01*
X175616666Y-78018113D02*
X175649999Y-77884780D01*
X175649999Y-77884780D02*
X175683333Y-77818113D01*
X175683333Y-77818113D02*
X175749999Y-77751446D01*
X175749999Y-77751446D02*
X175849999Y-77718113D01*
X175849999Y-77718113D02*
X175916666Y-77718113D01*
X175916666Y-77718113D02*
X176016666Y-77751446D01*
X176016666Y-77751446D02*
X176049999Y-77784780D01*
X176316666Y-77784780D02*
X176349999Y-77751446D01*
X176349999Y-77751446D02*
X176416666Y-77718113D01*
X176416666Y-77718113D02*
X176583333Y-77718113D01*
X176583333Y-77718113D02*
X176649999Y-77751446D01*
X176649999Y-77751446D02*
X176683333Y-77784780D01*
X176683333Y-77784780D02*
X176716666Y-77851446D01*
X176716666Y-77851446D02*
X176716666Y-77918113D01*
X176716666Y-77918113D02*
X176683333Y-78018113D01*
X176683333Y-78018113D02*
X176283333Y-78418113D01*
X176283333Y-78418113D02*
X176716666Y-78418113D01*
X177316666Y-77951446D02*
X177316666Y-78418113D01*
X177150000Y-77684780D02*
X176983333Y-78184780D01*
X176983333Y-78184780D02*
X177416666Y-78184780D01*
X184549999Y-74751446D02*
X184516666Y-74784780D01*
X184516666Y-74784780D02*
X184416666Y-74818113D01*
X184416666Y-74818113D02*
X184349999Y-74818113D01*
X184349999Y-74818113D02*
X184249999Y-74784780D01*
X184249999Y-74784780D02*
X184183333Y-74718113D01*
X184183333Y-74718113D02*
X184149999Y-74651446D01*
X184149999Y-74651446D02*
X184116666Y-74518113D01*
X184116666Y-74518113D02*
X184116666Y-74418113D01*
X184116666Y-74418113D02*
X184149999Y-74284780D01*
X184149999Y-74284780D02*
X184183333Y-74218113D01*
X184183333Y-74218113D02*
X184249999Y-74151446D01*
X184249999Y-74151446D02*
X184349999Y-74118113D01*
X184349999Y-74118113D02*
X184416666Y-74118113D01*
X184416666Y-74118113D02*
X184516666Y-74151446D01*
X184516666Y-74151446D02*
X184549999Y-74184780D01*
X184816666Y-74184780D02*
X184849999Y-74151446D01*
X184849999Y-74151446D02*
X184916666Y-74118113D01*
X184916666Y-74118113D02*
X185083333Y-74118113D01*
X185083333Y-74118113D02*
X185149999Y-74151446D01*
X185149999Y-74151446D02*
X185183333Y-74184780D01*
X185183333Y-74184780D02*
X185216666Y-74251446D01*
X185216666Y-74251446D02*
X185216666Y-74318113D01*
X185216666Y-74318113D02*
X185183333Y-74418113D01*
X185183333Y-74418113D02*
X184783333Y-74818113D01*
X184783333Y-74818113D02*
X185216666Y-74818113D01*
X185883333Y-74818113D02*
X185483333Y-74818113D01*
X185683333Y-74818113D02*
X185683333Y-74118113D01*
X185683333Y-74118113D02*
X185616666Y-74218113D01*
X185616666Y-74218113D02*
X185550000Y-74284780D01*
X185550000Y-74284780D02*
X185483333Y-74318113D01*
D12*
X190883333Y-75267593D02*
X190883333Y-74567593D01*
X190883333Y-74567593D02*
X191050000Y-74567593D01*
X191050000Y-74567593D02*
X191150000Y-74600926D01*
X191150000Y-74600926D02*
X191216667Y-74667593D01*
X191216667Y-74667593D02*
X191250000Y-74734260D01*
X191250000Y-74734260D02*
X191283333Y-74867593D01*
X191283333Y-74867593D02*
X191283333Y-74967593D01*
X191283333Y-74967593D02*
X191250000Y-75100926D01*
X191250000Y-75100926D02*
X191216667Y-75167593D01*
X191216667Y-75167593D02*
X191150000Y-75234260D01*
X191150000Y-75234260D02*
X191050000Y-75267593D01*
X191050000Y-75267593D02*
X190883333Y-75267593D01*
X191950000Y-75267593D02*
X191550000Y-75267593D01*
X191750000Y-75267593D02*
X191750000Y-74567593D01*
X191750000Y-74567593D02*
X191683333Y-74667593D01*
X191683333Y-74667593D02*
X191616667Y-74734260D01*
X191616667Y-74734260D02*
X191550000Y-74767593D01*
D11*
X176633333Y-76751446D02*
X176600000Y-76784780D01*
X176600000Y-76784780D02*
X176500000Y-76818113D01*
X176500000Y-76818113D02*
X176433333Y-76818113D01*
X176433333Y-76818113D02*
X176333333Y-76784780D01*
X176333333Y-76784780D02*
X176266667Y-76718113D01*
X176266667Y-76718113D02*
X176233333Y-76651446D01*
X176233333Y-76651446D02*
X176200000Y-76518113D01*
X176200000Y-76518113D02*
X176200000Y-76418113D01*
X176200000Y-76418113D02*
X176233333Y-76284780D01*
X176233333Y-76284780D02*
X176266667Y-76218113D01*
X176266667Y-76218113D02*
X176333333Y-76151446D01*
X176333333Y-76151446D02*
X176433333Y-76118113D01*
X176433333Y-76118113D02*
X176500000Y-76118113D01*
X176500000Y-76118113D02*
X176600000Y-76151446D01*
X176600000Y-76151446D02*
X176633333Y-76184780D01*
X177233333Y-76118113D02*
X177100000Y-76118113D01*
X177100000Y-76118113D02*
X177033333Y-76151446D01*
X177033333Y-76151446D02*
X177000000Y-76184780D01*
X177000000Y-76184780D02*
X176933333Y-76284780D01*
X176933333Y-76284780D02*
X176900000Y-76418113D01*
X176900000Y-76418113D02*
X176900000Y-76684780D01*
X176900000Y-76684780D02*
X176933333Y-76751446D01*
X176933333Y-76751446D02*
X176966667Y-76784780D01*
X176966667Y-76784780D02*
X177033333Y-76818113D01*
X177033333Y-76818113D02*
X177166667Y-76818113D01*
X177166667Y-76818113D02*
X177233333Y-76784780D01*
X177233333Y-76784780D02*
X177266667Y-76751446D01*
X177266667Y-76751446D02*
X177300000Y-76684780D01*
X177300000Y-76684780D02*
X177300000Y-76518113D01*
X177300000Y-76518113D02*
X177266667Y-76451446D01*
X177266667Y-76451446D02*
X177233333Y-76418113D01*
X177233333Y-76418113D02*
X177166667Y-76384780D01*
X177166667Y-76384780D02*
X177033333Y-76384780D01*
X177033333Y-76384780D02*
X176966667Y-76418113D01*
X176966667Y-76418113D02*
X176933333Y-76451446D01*
X176933333Y-76451446D02*
X176900000Y-76518113D01*
X178133333Y-75068113D02*
X177799999Y-75068113D01*
X177799999Y-75068113D02*
X177799999Y-74368113D01*
X178333333Y-74434780D02*
X178366666Y-74401446D01*
X178366666Y-74401446D02*
X178433333Y-74368113D01*
X178433333Y-74368113D02*
X178600000Y-74368113D01*
X178600000Y-74368113D02*
X178666666Y-74401446D01*
X178666666Y-74401446D02*
X178700000Y-74434780D01*
X178700000Y-74434780D02*
X178733333Y-74501446D01*
X178733333Y-74501446D02*
X178733333Y-74568113D01*
X178733333Y-74568113D02*
X178700000Y-74668113D01*
X178700000Y-74668113D02*
X178300000Y-75068113D01*
X178300000Y-75068113D02*
X178733333Y-75068113D01*
X173251446Y-66766666D02*
X173284780Y-66799999D01*
X173284780Y-66799999D02*
X173318113Y-66899999D01*
X173318113Y-66899999D02*
X173318113Y-66966666D01*
X173318113Y-66966666D02*
X173284780Y-67066666D01*
X173284780Y-67066666D02*
X173218113Y-67133333D01*
X173218113Y-67133333D02*
X173151446Y-67166666D01*
X173151446Y-67166666D02*
X173018113Y-67199999D01*
X173018113Y-67199999D02*
X172918113Y-67199999D01*
X172918113Y-67199999D02*
X172784780Y-67166666D01*
X172784780Y-67166666D02*
X172718113Y-67133333D01*
X172718113Y-67133333D02*
X172651446Y-67066666D01*
X172651446Y-67066666D02*
X172618113Y-66966666D01*
X172618113Y-66966666D02*
X172618113Y-66899999D01*
X172618113Y-66899999D02*
X172651446Y-66799999D01*
X172651446Y-66799999D02*
X172684780Y-66766666D01*
X172618113Y-66533333D02*
X172618113Y-66066666D01*
X172618113Y-66066666D02*
X173318113Y-66366666D01*
X173583333Y-61768113D02*
X173350000Y-61434780D01*
X173183333Y-61768113D02*
X173183333Y-61068113D01*
X173183333Y-61068113D02*
X173450000Y-61068113D01*
X173450000Y-61068113D02*
X173516667Y-61101446D01*
X173516667Y-61101446D02*
X173550000Y-61134780D01*
X173550000Y-61134780D02*
X173583333Y-61201446D01*
X173583333Y-61201446D02*
X173583333Y-61301446D01*
X173583333Y-61301446D02*
X173550000Y-61368113D01*
X173550000Y-61368113D02*
X173516667Y-61401446D01*
X173516667Y-61401446D02*
X173450000Y-61434780D01*
X173450000Y-61434780D02*
X173183333Y-61434780D01*
X173850000Y-61134780D02*
X173883333Y-61101446D01*
X173883333Y-61101446D02*
X173950000Y-61068113D01*
X173950000Y-61068113D02*
X174116667Y-61068113D01*
X174116667Y-61068113D02*
X174183333Y-61101446D01*
X174183333Y-61101446D02*
X174216667Y-61134780D01*
X174216667Y-61134780D02*
X174250000Y-61201446D01*
X174250000Y-61201446D02*
X174250000Y-61268113D01*
X174250000Y-61268113D02*
X174216667Y-61368113D01*
X174216667Y-61368113D02*
X173816667Y-61768113D01*
X173816667Y-61768113D02*
X174250000Y-61768113D01*
X164458333Y-94168113D02*
X164225000Y-93834780D01*
X164058333Y-94168113D02*
X164058333Y-93468113D01*
X164058333Y-93468113D02*
X164325000Y-93468113D01*
X164325000Y-93468113D02*
X164391667Y-93501446D01*
X164391667Y-93501446D02*
X164425000Y-93534780D01*
X164425000Y-93534780D02*
X164458333Y-93601446D01*
X164458333Y-93601446D02*
X164458333Y-93701446D01*
X164458333Y-93701446D02*
X164425000Y-93768113D01*
X164425000Y-93768113D02*
X164391667Y-93801446D01*
X164391667Y-93801446D02*
X164325000Y-93834780D01*
X164325000Y-93834780D02*
X164058333Y-93834780D01*
X164691667Y-93468113D02*
X165158333Y-93468113D01*
X165158333Y-93468113D02*
X164858333Y-94168113D01*
X157834780Y-65433333D02*
X157868113Y-65333333D01*
X157868113Y-65333333D02*
X157868113Y-65166667D01*
X157868113Y-65166667D02*
X157834780Y-65100000D01*
X157834780Y-65100000D02*
X157801446Y-65066667D01*
X157801446Y-65066667D02*
X157734780Y-65033333D01*
X157734780Y-65033333D02*
X157668113Y-65033333D01*
X157668113Y-65033333D02*
X157601446Y-65066667D01*
X157601446Y-65066667D02*
X157568113Y-65100000D01*
X157568113Y-65100000D02*
X157534780Y-65166667D01*
X157534780Y-65166667D02*
X157501446Y-65300000D01*
X157501446Y-65300000D02*
X157468113Y-65366667D01*
X157468113Y-65366667D02*
X157434780Y-65400000D01*
X157434780Y-65400000D02*
X157368113Y-65433333D01*
X157368113Y-65433333D02*
X157301446Y-65433333D01*
X157301446Y-65433333D02*
X157234780Y-65400000D01*
X157234780Y-65400000D02*
X157201446Y-65366667D01*
X157201446Y-65366667D02*
X157168113Y-65300000D01*
X157168113Y-65300000D02*
X157168113Y-65133333D01*
X157168113Y-65133333D02*
X157201446Y-65033333D01*
X157501446Y-64733333D02*
X157501446Y-64500000D01*
X157868113Y-64400000D02*
X157868113Y-64733333D01*
X157868113Y-64733333D02*
X157168113Y-64733333D01*
X157168113Y-64733333D02*
X157168113Y-64400000D01*
X157868113Y-63766667D02*
X157868113Y-64100000D01*
X157868113Y-64100000D02*
X157168113Y-64100000D01*
X157168113Y-63400000D02*
X157168113Y-63333333D01*
X157168113Y-63333333D02*
X157201446Y-63266666D01*
X157201446Y-63266666D02*
X157234780Y-63233333D01*
X157234780Y-63233333D02*
X157301446Y-63200000D01*
X157301446Y-63200000D02*
X157434780Y-63166666D01*
X157434780Y-63166666D02*
X157601446Y-63166666D01*
X157601446Y-63166666D02*
X157734780Y-63200000D01*
X157734780Y-63200000D02*
X157801446Y-63233333D01*
X157801446Y-63233333D02*
X157834780Y-63266666D01*
X157834780Y-63266666D02*
X157868113Y-63333333D01*
X157868113Y-63333333D02*
X157868113Y-63400000D01*
X157868113Y-63400000D02*
X157834780Y-63466666D01*
X157834780Y-63466666D02*
X157801446Y-63500000D01*
X157801446Y-63500000D02*
X157734780Y-63533333D01*
X157734780Y-63533333D02*
X157601446Y-63566666D01*
X157601446Y-63566666D02*
X157434780Y-63566666D01*
X157434780Y-63566666D02*
X157301446Y-63533333D01*
X157301446Y-63533333D02*
X157234780Y-63500000D01*
X157234780Y-63500000D02*
X157201446Y-63466666D01*
X157201446Y-63466666D02*
X157168113Y-63400000D01*
X189818113Y-91300000D02*
X189484780Y-91533333D01*
X189818113Y-91700000D02*
X189118113Y-91700000D01*
X189118113Y-91700000D02*
X189118113Y-91433333D01*
X189118113Y-91433333D02*
X189151446Y-91366667D01*
X189151446Y-91366667D02*
X189184780Y-91333333D01*
X189184780Y-91333333D02*
X189251446Y-91300000D01*
X189251446Y-91300000D02*
X189351446Y-91300000D01*
X189351446Y-91300000D02*
X189418113Y-91333333D01*
X189418113Y-91333333D02*
X189451446Y-91366667D01*
X189451446Y-91366667D02*
X189484780Y-91433333D01*
X189484780Y-91433333D02*
X189484780Y-91700000D01*
X189818113Y-90633333D02*
X189818113Y-91033333D01*
X189818113Y-90833333D02*
X189118113Y-90833333D01*
X189118113Y-90833333D02*
X189218113Y-90900000D01*
X189218113Y-90900000D02*
X189284780Y-90966667D01*
X189284780Y-90966667D02*
X189318113Y-91033333D01*
X189818113Y-89966666D02*
X189818113Y-90366666D01*
X189818113Y-90166666D02*
X189118113Y-90166666D01*
X189118113Y-90166666D02*
X189218113Y-90233333D01*
X189218113Y-90233333D02*
X189284780Y-90300000D01*
X189284780Y-90300000D02*
X189318113Y-90366666D01*
X179799999Y-86601446D02*
X179766666Y-86634780D01*
X179766666Y-86634780D02*
X179666666Y-86668113D01*
X179666666Y-86668113D02*
X179599999Y-86668113D01*
X179599999Y-86668113D02*
X179499999Y-86634780D01*
X179499999Y-86634780D02*
X179433333Y-86568113D01*
X179433333Y-86568113D02*
X179399999Y-86501446D01*
X179399999Y-86501446D02*
X179366666Y-86368113D01*
X179366666Y-86368113D02*
X179366666Y-86268113D01*
X179366666Y-86268113D02*
X179399999Y-86134780D01*
X179399999Y-86134780D02*
X179433333Y-86068113D01*
X179433333Y-86068113D02*
X179499999Y-86001446D01*
X179499999Y-86001446D02*
X179599999Y-85968113D01*
X179599999Y-85968113D02*
X179666666Y-85968113D01*
X179666666Y-85968113D02*
X179766666Y-86001446D01*
X179766666Y-86001446D02*
X179799999Y-86034780D01*
X180066666Y-86034780D02*
X180099999Y-86001446D01*
X180099999Y-86001446D02*
X180166666Y-85968113D01*
X180166666Y-85968113D02*
X180333333Y-85968113D01*
X180333333Y-85968113D02*
X180399999Y-86001446D01*
X180399999Y-86001446D02*
X180433333Y-86034780D01*
X180433333Y-86034780D02*
X180466666Y-86101446D01*
X180466666Y-86101446D02*
X180466666Y-86168113D01*
X180466666Y-86168113D02*
X180433333Y-86268113D01*
X180433333Y-86268113D02*
X180033333Y-86668113D01*
X180033333Y-86668113D02*
X180466666Y-86668113D01*
X180866666Y-86268113D02*
X180800000Y-86234780D01*
X180800000Y-86234780D02*
X180766666Y-86201446D01*
X180766666Y-86201446D02*
X180733333Y-86134780D01*
X180733333Y-86134780D02*
X180733333Y-86101446D01*
X180733333Y-86101446D02*
X180766666Y-86034780D01*
X180766666Y-86034780D02*
X180800000Y-86001446D01*
X180800000Y-86001446D02*
X180866666Y-85968113D01*
X180866666Y-85968113D02*
X181000000Y-85968113D01*
X181000000Y-85968113D02*
X181066666Y-86001446D01*
X181066666Y-86001446D02*
X181100000Y-86034780D01*
X181100000Y-86034780D02*
X181133333Y-86101446D01*
X181133333Y-86101446D02*
X181133333Y-86134780D01*
X181133333Y-86134780D02*
X181100000Y-86201446D01*
X181100000Y-86201446D02*
X181066666Y-86234780D01*
X181066666Y-86234780D02*
X181000000Y-86268113D01*
X181000000Y-86268113D02*
X180866666Y-86268113D01*
X180866666Y-86268113D02*
X180800000Y-86301446D01*
X180800000Y-86301446D02*
X180766666Y-86334780D01*
X180766666Y-86334780D02*
X180733333Y-86401446D01*
X180733333Y-86401446D02*
X180733333Y-86534780D01*
X180733333Y-86534780D02*
X180766666Y-86601446D01*
X180766666Y-86601446D02*
X180800000Y-86634780D01*
X180800000Y-86634780D02*
X180866666Y-86668113D01*
X180866666Y-86668113D02*
X181000000Y-86668113D01*
X181000000Y-86668113D02*
X181066666Y-86634780D01*
X181066666Y-86634780D02*
X181100000Y-86601446D01*
X181100000Y-86601446D02*
X181133333Y-86534780D01*
X181133333Y-86534780D02*
X181133333Y-86401446D01*
X181133333Y-86401446D02*
X181100000Y-86334780D01*
X181100000Y-86334780D02*
X181066666Y-86301446D01*
X181066666Y-86301446D02*
X181000000Y-86268113D01*
X181001446Y-75950000D02*
X181034780Y-75983333D01*
X181034780Y-75983333D02*
X181068113Y-76083333D01*
X181068113Y-76083333D02*
X181068113Y-76150000D01*
X181068113Y-76150000D02*
X181034780Y-76250000D01*
X181034780Y-76250000D02*
X180968113Y-76316667D01*
X180968113Y-76316667D02*
X180901446Y-76350000D01*
X180901446Y-76350000D02*
X180768113Y-76383333D01*
X180768113Y-76383333D02*
X180668113Y-76383333D01*
X180668113Y-76383333D02*
X180534780Y-76350000D01*
X180534780Y-76350000D02*
X180468113Y-76316667D01*
X180468113Y-76316667D02*
X180401446Y-76250000D01*
X180401446Y-76250000D02*
X180368113Y-76150000D01*
X180368113Y-76150000D02*
X180368113Y-76083333D01*
X180368113Y-76083333D02*
X180401446Y-75983333D01*
X180401446Y-75983333D02*
X180434780Y-75950000D01*
X181068113Y-75283333D02*
X181068113Y-75683333D01*
X181068113Y-75483333D02*
X180368113Y-75483333D01*
X180368113Y-75483333D02*
X180468113Y-75550000D01*
X180468113Y-75550000D02*
X180534780Y-75616667D01*
X180534780Y-75616667D02*
X180568113Y-75683333D01*
X180368113Y-75050000D02*
X180368113Y-74583333D01*
X180368113Y-74583333D02*
X181068113Y-74883333D01*
X191318113Y-96066666D02*
X190984780Y-96299999D01*
X191318113Y-96466666D02*
X190618113Y-96466666D01*
X190618113Y-96466666D02*
X190618113Y-96199999D01*
X190618113Y-96199999D02*
X190651446Y-96133333D01*
X190651446Y-96133333D02*
X190684780Y-96099999D01*
X190684780Y-96099999D02*
X190751446Y-96066666D01*
X190751446Y-96066666D02*
X190851446Y-96066666D01*
X190851446Y-96066666D02*
X190918113Y-96099999D01*
X190918113Y-96099999D02*
X190951446Y-96133333D01*
X190951446Y-96133333D02*
X190984780Y-96199999D01*
X190984780Y-96199999D02*
X190984780Y-96466666D01*
X191284780Y-95799999D02*
X191318113Y-95699999D01*
X191318113Y-95699999D02*
X191318113Y-95533333D01*
X191318113Y-95533333D02*
X191284780Y-95466666D01*
X191284780Y-95466666D02*
X191251446Y-95433333D01*
X191251446Y-95433333D02*
X191184780Y-95399999D01*
X191184780Y-95399999D02*
X191118113Y-95399999D01*
X191118113Y-95399999D02*
X191051446Y-95433333D01*
X191051446Y-95433333D02*
X191018113Y-95466666D01*
X191018113Y-95466666D02*
X190984780Y-95533333D01*
X190984780Y-95533333D02*
X190951446Y-95666666D01*
X190951446Y-95666666D02*
X190918113Y-95733333D01*
X190918113Y-95733333D02*
X190884780Y-95766666D01*
X190884780Y-95766666D02*
X190818113Y-95799999D01*
X190818113Y-95799999D02*
X190751446Y-95799999D01*
X190751446Y-95799999D02*
X190684780Y-95766666D01*
X190684780Y-95766666D02*
X190651446Y-95733333D01*
X190651446Y-95733333D02*
X190618113Y-95666666D01*
X190618113Y-95666666D02*
X190618113Y-95499999D01*
X190618113Y-95499999D02*
X190651446Y-95399999D01*
X190618113Y-95199999D02*
X190618113Y-94799999D01*
X191318113Y-94999999D02*
X190618113Y-94999999D01*
X191318113Y-94199999D02*
X191318113Y-94599999D01*
X191318113Y-94399999D02*
X190618113Y-94399999D01*
X190618113Y-94399999D02*
X190718113Y-94466666D01*
X190718113Y-94466666D02*
X190784780Y-94533333D01*
X190784780Y-94533333D02*
X190818113Y-94599999D01*
X182751446Y-75950000D02*
X182784780Y-75983333D01*
X182784780Y-75983333D02*
X182818113Y-76083333D01*
X182818113Y-76083333D02*
X182818113Y-76150000D01*
X182818113Y-76150000D02*
X182784780Y-76250000D01*
X182784780Y-76250000D02*
X182718113Y-76316667D01*
X182718113Y-76316667D02*
X182651446Y-76350000D01*
X182651446Y-76350000D02*
X182518113Y-76383333D01*
X182518113Y-76383333D02*
X182418113Y-76383333D01*
X182418113Y-76383333D02*
X182284780Y-76350000D01*
X182284780Y-76350000D02*
X182218113Y-76316667D01*
X182218113Y-76316667D02*
X182151446Y-76250000D01*
X182151446Y-76250000D02*
X182118113Y-76150000D01*
X182118113Y-76150000D02*
X182118113Y-76083333D01*
X182118113Y-76083333D02*
X182151446Y-75983333D01*
X182151446Y-75983333D02*
X182184780Y-75950000D01*
X182818113Y-75283333D02*
X182818113Y-75683333D01*
X182818113Y-75483333D02*
X182118113Y-75483333D01*
X182118113Y-75483333D02*
X182218113Y-75550000D01*
X182218113Y-75550000D02*
X182284780Y-75616667D01*
X182284780Y-75616667D02*
X182318113Y-75683333D01*
X182818113Y-74950000D02*
X182818113Y-74816666D01*
X182818113Y-74816666D02*
X182784780Y-74750000D01*
X182784780Y-74750000D02*
X182751446Y-74716666D01*
X182751446Y-74716666D02*
X182651446Y-74650000D01*
X182651446Y-74650000D02*
X182518113Y-74616666D01*
X182518113Y-74616666D02*
X182251446Y-74616666D01*
X182251446Y-74616666D02*
X182184780Y-74650000D01*
X182184780Y-74650000D02*
X182151446Y-74683333D01*
X182151446Y-74683333D02*
X182118113Y-74750000D01*
X182118113Y-74750000D02*
X182118113Y-74883333D01*
X182118113Y-74883333D02*
X182151446Y-74950000D01*
X182151446Y-74950000D02*
X182184780Y-74983333D01*
X182184780Y-74983333D02*
X182251446Y-75016666D01*
X182251446Y-75016666D02*
X182418113Y-75016666D01*
X182418113Y-75016666D02*
X182484780Y-74983333D01*
X182484780Y-74983333D02*
X182518113Y-74950000D01*
X182518113Y-74950000D02*
X182551446Y-74883333D01*
X182551446Y-74883333D02*
X182551446Y-74750000D01*
X182551446Y-74750000D02*
X182518113Y-74683333D01*
X182518113Y-74683333D02*
X182484780Y-74650000D01*
X182484780Y-74650000D02*
X182418113Y-74616666D01*
X192991666Y-67168113D02*
X192991666Y-67668113D01*
X192991666Y-67668113D02*
X192958333Y-67768113D01*
X192958333Y-67768113D02*
X192891666Y-67834780D01*
X192891666Y-67834780D02*
X192791666Y-67868113D01*
X192791666Y-67868113D02*
X192725000Y-67868113D01*
X193691666Y-67868113D02*
X193291666Y-67868113D01*
X193491666Y-67868113D02*
X193491666Y-67168113D01*
X193491666Y-67168113D02*
X193424999Y-67268113D01*
X193424999Y-67268113D02*
X193358333Y-67334780D01*
X193358333Y-67334780D02*
X193291666Y-67368113D01*
X174983333Y-70201446D02*
X174950000Y-70234780D01*
X174950000Y-70234780D02*
X174850000Y-70268113D01*
X174850000Y-70268113D02*
X174783333Y-70268113D01*
X174783333Y-70268113D02*
X174683333Y-70234780D01*
X174683333Y-70234780D02*
X174616667Y-70168113D01*
X174616667Y-70168113D02*
X174583333Y-70101446D01*
X174583333Y-70101446D02*
X174550000Y-69968113D01*
X174550000Y-69968113D02*
X174550000Y-69868113D01*
X174550000Y-69868113D02*
X174583333Y-69734780D01*
X174583333Y-69734780D02*
X174616667Y-69668113D01*
X174616667Y-69668113D02*
X174683333Y-69601446D01*
X174683333Y-69601446D02*
X174783333Y-69568113D01*
X174783333Y-69568113D02*
X174850000Y-69568113D01*
X174850000Y-69568113D02*
X174950000Y-69601446D01*
X174950000Y-69601446D02*
X174983333Y-69634780D01*
X175383333Y-69868113D02*
X175316667Y-69834780D01*
X175316667Y-69834780D02*
X175283333Y-69801446D01*
X175283333Y-69801446D02*
X175250000Y-69734780D01*
X175250000Y-69734780D02*
X175250000Y-69701446D01*
X175250000Y-69701446D02*
X175283333Y-69634780D01*
X175283333Y-69634780D02*
X175316667Y-69601446D01*
X175316667Y-69601446D02*
X175383333Y-69568113D01*
X175383333Y-69568113D02*
X175516667Y-69568113D01*
X175516667Y-69568113D02*
X175583333Y-69601446D01*
X175583333Y-69601446D02*
X175616667Y-69634780D01*
X175616667Y-69634780D02*
X175650000Y-69701446D01*
X175650000Y-69701446D02*
X175650000Y-69734780D01*
X175650000Y-69734780D02*
X175616667Y-69801446D01*
X175616667Y-69801446D02*
X175583333Y-69834780D01*
X175583333Y-69834780D02*
X175516667Y-69868113D01*
X175516667Y-69868113D02*
X175383333Y-69868113D01*
X175383333Y-69868113D02*
X175316667Y-69901446D01*
X175316667Y-69901446D02*
X175283333Y-69934780D01*
X175283333Y-69934780D02*
X175250000Y-70001446D01*
X175250000Y-70001446D02*
X175250000Y-70134780D01*
X175250000Y-70134780D02*
X175283333Y-70201446D01*
X175283333Y-70201446D02*
X175316667Y-70234780D01*
X175316667Y-70234780D02*
X175383333Y-70268113D01*
X175383333Y-70268113D02*
X175516667Y-70268113D01*
X175516667Y-70268113D02*
X175583333Y-70234780D01*
X175583333Y-70234780D02*
X175616667Y-70201446D01*
X175616667Y-70201446D02*
X175650000Y-70134780D01*
X175650000Y-70134780D02*
X175650000Y-70001446D01*
X175650000Y-70001446D02*
X175616667Y-69934780D01*
X175616667Y-69934780D02*
X175583333Y-69901446D01*
X175583333Y-69901446D02*
X175516667Y-69868113D01*
X164966666Y-66468113D02*
X164966666Y-67034780D01*
X164966666Y-67034780D02*
X165000000Y-67101446D01*
X165000000Y-67101446D02*
X165033333Y-67134780D01*
X165033333Y-67134780D02*
X165100000Y-67168113D01*
X165100000Y-67168113D02*
X165233333Y-67168113D01*
X165233333Y-67168113D02*
X165300000Y-67134780D01*
X165300000Y-67134780D02*
X165333333Y-67101446D01*
X165333333Y-67101446D02*
X165366666Y-67034780D01*
X165366666Y-67034780D02*
X165366666Y-66468113D01*
X165666666Y-66534780D02*
X165699999Y-66501446D01*
X165699999Y-66501446D02*
X165766666Y-66468113D01*
X165766666Y-66468113D02*
X165933333Y-66468113D01*
X165933333Y-66468113D02*
X165999999Y-66501446D01*
X165999999Y-66501446D02*
X166033333Y-66534780D01*
X166033333Y-66534780D02*
X166066666Y-66601446D01*
X166066666Y-66601446D02*
X166066666Y-66668113D01*
X166066666Y-66668113D02*
X166033333Y-66768113D01*
X166033333Y-66768113D02*
X165633333Y-67168113D01*
X165633333Y-67168113D02*
X166066666Y-67168113D01*
X154868113Y-68875000D02*
X154534780Y-69108333D01*
X154868113Y-69275000D02*
X154168113Y-69275000D01*
X154168113Y-69275000D02*
X154168113Y-69008333D01*
X154168113Y-69008333D02*
X154201446Y-68941667D01*
X154201446Y-68941667D02*
X154234780Y-68908333D01*
X154234780Y-68908333D02*
X154301446Y-68875000D01*
X154301446Y-68875000D02*
X154401446Y-68875000D01*
X154401446Y-68875000D02*
X154468113Y-68908333D01*
X154468113Y-68908333D02*
X154501446Y-68941667D01*
X154501446Y-68941667D02*
X154534780Y-69008333D01*
X154534780Y-69008333D02*
X154534780Y-69275000D01*
X154868113Y-68208333D02*
X154868113Y-68608333D01*
X154868113Y-68408333D02*
X154168113Y-68408333D01*
X154168113Y-68408333D02*
X154268113Y-68475000D01*
X154268113Y-68475000D02*
X154334780Y-68541667D01*
X154334780Y-68541667D02*
X154368113Y-68608333D01*
X154168113Y-67575000D02*
X154168113Y-67908333D01*
X154168113Y-67908333D02*
X154501446Y-67941666D01*
X154501446Y-67941666D02*
X154468113Y-67908333D01*
X154468113Y-67908333D02*
X154434780Y-67841666D01*
X154434780Y-67841666D02*
X154434780Y-67675000D01*
X154434780Y-67675000D02*
X154468113Y-67608333D01*
X154468113Y-67608333D02*
X154501446Y-67575000D01*
X154501446Y-67575000D02*
X154568113Y-67541666D01*
X154568113Y-67541666D02*
X154734780Y-67541666D01*
X154734780Y-67541666D02*
X154801446Y-67575000D01*
X154801446Y-67575000D02*
X154834780Y-67608333D01*
X154834780Y-67608333D02*
X154868113Y-67675000D01*
X154868113Y-67675000D02*
X154868113Y-67841666D01*
X154868113Y-67841666D02*
X154834780Y-67908333D01*
X154834780Y-67908333D02*
X154801446Y-67941666D01*
X176633333Y-75251446D02*
X176600000Y-75284780D01*
X176600000Y-75284780D02*
X176500000Y-75318113D01*
X176500000Y-75318113D02*
X176433333Y-75318113D01*
X176433333Y-75318113D02*
X176333333Y-75284780D01*
X176333333Y-75284780D02*
X176266667Y-75218113D01*
X176266667Y-75218113D02*
X176233333Y-75151446D01*
X176233333Y-75151446D02*
X176200000Y-75018113D01*
X176200000Y-75018113D02*
X176200000Y-74918113D01*
X176200000Y-74918113D02*
X176233333Y-74784780D01*
X176233333Y-74784780D02*
X176266667Y-74718113D01*
X176266667Y-74718113D02*
X176333333Y-74651446D01*
X176333333Y-74651446D02*
X176433333Y-74618113D01*
X176433333Y-74618113D02*
X176500000Y-74618113D01*
X176500000Y-74618113D02*
X176600000Y-74651446D01*
X176600000Y-74651446D02*
X176633333Y-74684780D01*
X177266667Y-74618113D02*
X176933333Y-74618113D01*
X176933333Y-74618113D02*
X176900000Y-74951446D01*
X176900000Y-74951446D02*
X176933333Y-74918113D01*
X176933333Y-74918113D02*
X177000000Y-74884780D01*
X177000000Y-74884780D02*
X177166667Y-74884780D01*
X177166667Y-74884780D02*
X177233333Y-74918113D01*
X177233333Y-74918113D02*
X177266667Y-74951446D01*
X177266667Y-74951446D02*
X177300000Y-75018113D01*
X177300000Y-75018113D02*
X177300000Y-75184780D01*
X177300000Y-75184780D02*
X177266667Y-75251446D01*
X177266667Y-75251446D02*
X177233333Y-75284780D01*
X177233333Y-75284780D02*
X177166667Y-75318113D01*
X177166667Y-75318113D02*
X177000000Y-75318113D01*
X177000000Y-75318113D02*
X176933333Y-75284780D01*
X176933333Y-75284780D02*
X176900000Y-75251446D01*
X184049999Y-78351446D02*
X184016666Y-78384780D01*
X184016666Y-78384780D02*
X183916666Y-78418113D01*
X183916666Y-78418113D02*
X183849999Y-78418113D01*
X183849999Y-78418113D02*
X183749999Y-78384780D01*
X183749999Y-78384780D02*
X183683333Y-78318113D01*
X183683333Y-78318113D02*
X183649999Y-78251446D01*
X183649999Y-78251446D02*
X183616666Y-78118113D01*
X183616666Y-78118113D02*
X183616666Y-78018113D01*
X183616666Y-78018113D02*
X183649999Y-77884780D01*
X183649999Y-77884780D02*
X183683333Y-77818113D01*
X183683333Y-77818113D02*
X183749999Y-77751446D01*
X183749999Y-77751446D02*
X183849999Y-77718113D01*
X183849999Y-77718113D02*
X183916666Y-77718113D01*
X183916666Y-77718113D02*
X184016666Y-77751446D01*
X184016666Y-77751446D02*
X184049999Y-77784780D01*
X184316666Y-77784780D02*
X184349999Y-77751446D01*
X184349999Y-77751446D02*
X184416666Y-77718113D01*
X184416666Y-77718113D02*
X184583333Y-77718113D01*
X184583333Y-77718113D02*
X184649999Y-77751446D01*
X184649999Y-77751446D02*
X184683333Y-77784780D01*
X184683333Y-77784780D02*
X184716666Y-77851446D01*
X184716666Y-77851446D02*
X184716666Y-77918113D01*
X184716666Y-77918113D02*
X184683333Y-78018113D01*
X184683333Y-78018113D02*
X184283333Y-78418113D01*
X184283333Y-78418113D02*
X184716666Y-78418113D01*
X185316666Y-77718113D02*
X185183333Y-77718113D01*
X185183333Y-77718113D02*
X185116666Y-77751446D01*
X185116666Y-77751446D02*
X185083333Y-77784780D01*
X185083333Y-77784780D02*
X185016666Y-77884780D01*
X185016666Y-77884780D02*
X184983333Y-78018113D01*
X184983333Y-78018113D02*
X184983333Y-78284780D01*
X184983333Y-78284780D02*
X185016666Y-78351446D01*
X185016666Y-78351446D02*
X185050000Y-78384780D01*
X185050000Y-78384780D02*
X185116666Y-78418113D01*
X185116666Y-78418113D02*
X185250000Y-78418113D01*
X185250000Y-78418113D02*
X185316666Y-78384780D01*
X185316666Y-78384780D02*
X185350000Y-78351446D01*
X185350000Y-78351446D02*
X185383333Y-78284780D01*
X185383333Y-78284780D02*
X185383333Y-78118113D01*
X185383333Y-78118113D02*
X185350000Y-78051446D01*
X185350000Y-78051446D02*
X185316666Y-78018113D01*
X185316666Y-78018113D02*
X185250000Y-77984780D01*
X185250000Y-77984780D02*
X185116666Y-77984780D01*
X185116666Y-77984780D02*
X185050000Y-78018113D01*
X185050000Y-78018113D02*
X185016666Y-78051446D01*
X185016666Y-78051446D02*
X184983333Y-78118113D01*
X161001446Y-84500000D02*
X161034780Y-84533333D01*
X161034780Y-84533333D02*
X161068113Y-84633333D01*
X161068113Y-84633333D02*
X161068113Y-84700000D01*
X161068113Y-84700000D02*
X161034780Y-84800000D01*
X161034780Y-84800000D02*
X160968113Y-84866667D01*
X160968113Y-84866667D02*
X160901446Y-84900000D01*
X160901446Y-84900000D02*
X160768113Y-84933333D01*
X160768113Y-84933333D02*
X160668113Y-84933333D01*
X160668113Y-84933333D02*
X160534780Y-84900000D01*
X160534780Y-84900000D02*
X160468113Y-84866667D01*
X160468113Y-84866667D02*
X160401446Y-84800000D01*
X160401446Y-84800000D02*
X160368113Y-84700000D01*
X160368113Y-84700000D02*
X160368113Y-84633333D01*
X160368113Y-84633333D02*
X160401446Y-84533333D01*
X160401446Y-84533333D02*
X160434780Y-84500000D01*
X160368113Y-84266667D02*
X160368113Y-83833333D01*
X160368113Y-83833333D02*
X160634780Y-84066667D01*
X160634780Y-84066667D02*
X160634780Y-83966667D01*
X160634780Y-83966667D02*
X160668113Y-83900000D01*
X160668113Y-83900000D02*
X160701446Y-83866667D01*
X160701446Y-83866667D02*
X160768113Y-83833333D01*
X160768113Y-83833333D02*
X160934780Y-83833333D01*
X160934780Y-83833333D02*
X161001446Y-83866667D01*
X161001446Y-83866667D02*
X161034780Y-83900000D01*
X161034780Y-83900000D02*
X161068113Y-83966667D01*
X161068113Y-83966667D02*
X161068113Y-84166667D01*
X161068113Y-84166667D02*
X161034780Y-84233333D01*
X161034780Y-84233333D02*
X161001446Y-84266667D01*
X161068113Y-83166666D02*
X161068113Y-83566666D01*
X161068113Y-83366666D02*
X160368113Y-83366666D01*
X160368113Y-83366666D02*
X160468113Y-83433333D01*
X160468113Y-83433333D02*
X160534780Y-83500000D01*
X160534780Y-83500000D02*
X160568113Y-83566666D01*
X171751446Y-79116666D02*
X171784780Y-79149999D01*
X171784780Y-79149999D02*
X171818113Y-79249999D01*
X171818113Y-79249999D02*
X171818113Y-79316666D01*
X171818113Y-79316666D02*
X171784780Y-79416666D01*
X171784780Y-79416666D02*
X171718113Y-79483333D01*
X171718113Y-79483333D02*
X171651446Y-79516666D01*
X171651446Y-79516666D02*
X171518113Y-79549999D01*
X171518113Y-79549999D02*
X171418113Y-79549999D01*
X171418113Y-79549999D02*
X171284780Y-79516666D01*
X171284780Y-79516666D02*
X171218113Y-79483333D01*
X171218113Y-79483333D02*
X171151446Y-79416666D01*
X171151446Y-79416666D02*
X171118113Y-79316666D01*
X171118113Y-79316666D02*
X171118113Y-79249999D01*
X171118113Y-79249999D02*
X171151446Y-79149999D01*
X171151446Y-79149999D02*
X171184780Y-79116666D01*
X171818113Y-78783333D02*
X171818113Y-78649999D01*
X171818113Y-78649999D02*
X171784780Y-78583333D01*
X171784780Y-78583333D02*
X171751446Y-78549999D01*
X171751446Y-78549999D02*
X171651446Y-78483333D01*
X171651446Y-78483333D02*
X171518113Y-78449999D01*
X171518113Y-78449999D02*
X171251446Y-78449999D01*
X171251446Y-78449999D02*
X171184780Y-78483333D01*
X171184780Y-78483333D02*
X171151446Y-78516666D01*
X171151446Y-78516666D02*
X171118113Y-78583333D01*
X171118113Y-78583333D02*
X171118113Y-78716666D01*
X171118113Y-78716666D02*
X171151446Y-78783333D01*
X171151446Y-78783333D02*
X171184780Y-78816666D01*
X171184780Y-78816666D02*
X171251446Y-78849999D01*
X171251446Y-78849999D02*
X171418113Y-78849999D01*
X171418113Y-78849999D02*
X171484780Y-78816666D01*
X171484780Y-78816666D02*
X171518113Y-78783333D01*
X171518113Y-78783333D02*
X171551446Y-78716666D01*
X171551446Y-78716666D02*
X171551446Y-78583333D01*
X171551446Y-78583333D02*
X171518113Y-78516666D01*
X171518113Y-78516666D02*
X171484780Y-78483333D01*
X171484780Y-78483333D02*
X171418113Y-78449999D01*
X175049999Y-72001446D02*
X175016666Y-72034780D01*
X175016666Y-72034780D02*
X174916666Y-72068113D01*
X174916666Y-72068113D02*
X174849999Y-72068113D01*
X174849999Y-72068113D02*
X174749999Y-72034780D01*
X174749999Y-72034780D02*
X174683333Y-71968113D01*
X174683333Y-71968113D02*
X174649999Y-71901446D01*
X174649999Y-71901446D02*
X174616666Y-71768113D01*
X174616666Y-71768113D02*
X174616666Y-71668113D01*
X174616666Y-71668113D02*
X174649999Y-71534780D01*
X174649999Y-71534780D02*
X174683333Y-71468113D01*
X174683333Y-71468113D02*
X174749999Y-71401446D01*
X174749999Y-71401446D02*
X174849999Y-71368113D01*
X174849999Y-71368113D02*
X174916666Y-71368113D01*
X174916666Y-71368113D02*
X175016666Y-71401446D01*
X175016666Y-71401446D02*
X175049999Y-71434780D01*
X175716666Y-72068113D02*
X175316666Y-72068113D01*
X175516666Y-72068113D02*
X175516666Y-71368113D01*
X175516666Y-71368113D02*
X175449999Y-71468113D01*
X175449999Y-71468113D02*
X175383333Y-71534780D01*
X175383333Y-71534780D02*
X175316666Y-71568113D01*
X176383333Y-72068113D02*
X175983333Y-72068113D01*
X176183333Y-72068113D02*
X176183333Y-71368113D01*
X176183333Y-71368113D02*
X176116666Y-71468113D01*
X176116666Y-71468113D02*
X176050000Y-71534780D01*
X176050000Y-71534780D02*
X175983333Y-71568113D01*
X177249999Y-67001446D02*
X177216666Y-67034780D01*
X177216666Y-67034780D02*
X177116666Y-67068113D01*
X177116666Y-67068113D02*
X177049999Y-67068113D01*
X177049999Y-67068113D02*
X176949999Y-67034780D01*
X176949999Y-67034780D02*
X176883333Y-66968113D01*
X176883333Y-66968113D02*
X176849999Y-66901446D01*
X176849999Y-66901446D02*
X176816666Y-66768113D01*
X176816666Y-66768113D02*
X176816666Y-66668113D01*
X176816666Y-66668113D02*
X176849999Y-66534780D01*
X176849999Y-66534780D02*
X176883333Y-66468113D01*
X176883333Y-66468113D02*
X176949999Y-66401446D01*
X176949999Y-66401446D02*
X177049999Y-66368113D01*
X177049999Y-66368113D02*
X177116666Y-66368113D01*
X177116666Y-66368113D02*
X177216666Y-66401446D01*
X177216666Y-66401446D02*
X177249999Y-66434780D01*
X177916666Y-67068113D02*
X177516666Y-67068113D01*
X177716666Y-67068113D02*
X177716666Y-66368113D01*
X177716666Y-66368113D02*
X177649999Y-66468113D01*
X177649999Y-66468113D02*
X177583333Y-66534780D01*
X177583333Y-66534780D02*
X177516666Y-66568113D01*
X178350000Y-66368113D02*
X178416666Y-66368113D01*
X178416666Y-66368113D02*
X178483333Y-66401446D01*
X178483333Y-66401446D02*
X178516666Y-66434780D01*
X178516666Y-66434780D02*
X178550000Y-66501446D01*
X178550000Y-66501446D02*
X178583333Y-66634780D01*
X178583333Y-66634780D02*
X178583333Y-66801446D01*
X178583333Y-66801446D02*
X178550000Y-66934780D01*
X178550000Y-66934780D02*
X178516666Y-67001446D01*
X178516666Y-67001446D02*
X178483333Y-67034780D01*
X178483333Y-67034780D02*
X178416666Y-67068113D01*
X178416666Y-67068113D02*
X178350000Y-67068113D01*
X178350000Y-67068113D02*
X178283333Y-67034780D01*
X178283333Y-67034780D02*
X178250000Y-67001446D01*
X178250000Y-67001446D02*
X178216666Y-66934780D01*
X178216666Y-66934780D02*
X178183333Y-66801446D01*
X178183333Y-66801446D02*
X178183333Y-66634780D01*
X178183333Y-66634780D02*
X178216666Y-66501446D01*
X178216666Y-66501446D02*
X178250000Y-66434780D01*
X178250000Y-66434780D02*
X178283333Y-66401446D01*
X178283333Y-66401446D02*
X178350000Y-66368113D01*
X165883333Y-101168113D02*
X165650000Y-100834780D01*
X165483333Y-101168113D02*
X165483333Y-100468113D01*
X165483333Y-100468113D02*
X165750000Y-100468113D01*
X165750000Y-100468113D02*
X165816667Y-100501446D01*
X165816667Y-100501446D02*
X165850000Y-100534780D01*
X165850000Y-100534780D02*
X165883333Y-100601446D01*
X165883333Y-100601446D02*
X165883333Y-100701446D01*
X165883333Y-100701446D02*
X165850000Y-100768113D01*
X165850000Y-100768113D02*
X165816667Y-100801446D01*
X165816667Y-100801446D02*
X165750000Y-100834780D01*
X165750000Y-100834780D02*
X165483333Y-100834780D01*
X166550000Y-101168113D02*
X166150000Y-101168113D01*
X166350000Y-101168113D02*
X166350000Y-100468113D01*
X166350000Y-100468113D02*
X166283333Y-100568113D01*
X166283333Y-100568113D02*
X166216667Y-100634780D01*
X166216667Y-100634780D02*
X166150000Y-100668113D01*
X189633333Y-74768113D02*
X189400000Y-74434780D01*
X189233333Y-74768113D02*
X189233333Y-74068113D01*
X189233333Y-74068113D02*
X189500000Y-74068113D01*
X189500000Y-74068113D02*
X189566667Y-74101446D01*
X189566667Y-74101446D02*
X189600000Y-74134780D01*
X189600000Y-74134780D02*
X189633333Y-74201446D01*
X189633333Y-74201446D02*
X189633333Y-74301446D01*
X189633333Y-74301446D02*
X189600000Y-74368113D01*
X189600000Y-74368113D02*
X189566667Y-74401446D01*
X189566667Y-74401446D02*
X189500000Y-74434780D01*
X189500000Y-74434780D02*
X189233333Y-74434780D01*
X190266667Y-74068113D02*
X189933333Y-74068113D01*
X189933333Y-74068113D02*
X189900000Y-74401446D01*
X189900000Y-74401446D02*
X189933333Y-74368113D01*
X189933333Y-74368113D02*
X190000000Y-74334780D01*
X190000000Y-74334780D02*
X190166667Y-74334780D01*
X190166667Y-74334780D02*
X190233333Y-74368113D01*
X190233333Y-74368113D02*
X190266667Y-74401446D01*
X190266667Y-74401446D02*
X190300000Y-74468113D01*
X190300000Y-74468113D02*
X190300000Y-74634780D01*
X190300000Y-74634780D02*
X190266667Y-74701446D01*
X190266667Y-74701446D02*
X190233333Y-74734780D01*
X190233333Y-74734780D02*
X190166667Y-74768113D01*
X190166667Y-74768113D02*
X190000000Y-74768113D01*
X190000000Y-74768113D02*
X189933333Y-74734780D01*
X189933333Y-74734780D02*
X189900000Y-74701446D01*
X169451446Y-79333333D02*
X169451446Y-79566666D01*
X169818113Y-79566666D02*
X169118113Y-79566666D01*
X169118113Y-79566666D02*
X169118113Y-79233333D01*
X169451446Y-78733333D02*
X169484780Y-78633333D01*
X169484780Y-78633333D02*
X169518113Y-78599999D01*
X169518113Y-78599999D02*
X169584780Y-78566666D01*
X169584780Y-78566666D02*
X169684780Y-78566666D01*
X169684780Y-78566666D02*
X169751446Y-78599999D01*
X169751446Y-78599999D02*
X169784780Y-78633333D01*
X169784780Y-78633333D02*
X169818113Y-78699999D01*
X169818113Y-78699999D02*
X169818113Y-78966666D01*
X169818113Y-78966666D02*
X169118113Y-78966666D01*
X169118113Y-78966666D02*
X169118113Y-78733333D01*
X169118113Y-78733333D02*
X169151446Y-78666666D01*
X169151446Y-78666666D02*
X169184780Y-78633333D01*
X169184780Y-78633333D02*
X169251446Y-78599999D01*
X169251446Y-78599999D02*
X169318113Y-78599999D01*
X169318113Y-78599999D02*
X169384780Y-78633333D01*
X169384780Y-78633333D02*
X169418113Y-78666666D01*
X169418113Y-78666666D02*
X169451446Y-78733333D01*
X169451446Y-78733333D02*
X169451446Y-78966666D01*
X169184780Y-78299999D02*
X169151446Y-78266666D01*
X169151446Y-78266666D02*
X169118113Y-78199999D01*
X169118113Y-78199999D02*
X169118113Y-78033333D01*
X169118113Y-78033333D02*
X169151446Y-77966666D01*
X169151446Y-77966666D02*
X169184780Y-77933333D01*
X169184780Y-77933333D02*
X169251446Y-77899999D01*
X169251446Y-77899999D02*
X169318113Y-77899999D01*
X169318113Y-77899999D02*
X169418113Y-77933333D01*
X169418113Y-77933333D02*
X169818113Y-78333333D01*
X169818113Y-78333333D02*
X169818113Y-77899999D01*
X158368113Y-68875000D02*
X158034780Y-69108333D01*
X158368113Y-69275000D02*
X157668113Y-69275000D01*
X157668113Y-69275000D02*
X157668113Y-69008333D01*
X157668113Y-69008333D02*
X157701446Y-68941667D01*
X157701446Y-68941667D02*
X157734780Y-68908333D01*
X157734780Y-68908333D02*
X157801446Y-68875000D01*
X157801446Y-68875000D02*
X157901446Y-68875000D01*
X157901446Y-68875000D02*
X157968113Y-68908333D01*
X157968113Y-68908333D02*
X158001446Y-68941667D01*
X158001446Y-68941667D02*
X158034780Y-69008333D01*
X158034780Y-69008333D02*
X158034780Y-69275000D01*
X158368113Y-68208333D02*
X158368113Y-68608333D01*
X158368113Y-68408333D02*
X157668113Y-68408333D01*
X157668113Y-68408333D02*
X157768113Y-68475000D01*
X157768113Y-68475000D02*
X157834780Y-68541667D01*
X157834780Y-68541667D02*
X157868113Y-68608333D01*
X157668113Y-67975000D02*
X157668113Y-67541666D01*
X157668113Y-67541666D02*
X157934780Y-67775000D01*
X157934780Y-67775000D02*
X157934780Y-67675000D01*
X157934780Y-67675000D02*
X157968113Y-67608333D01*
X157968113Y-67608333D02*
X158001446Y-67575000D01*
X158001446Y-67575000D02*
X158068113Y-67541666D01*
X158068113Y-67541666D02*
X158234780Y-67541666D01*
X158234780Y-67541666D02*
X158301446Y-67575000D01*
X158301446Y-67575000D02*
X158334780Y-67608333D01*
X158334780Y-67608333D02*
X158368113Y-67675000D01*
X158368113Y-67675000D02*
X158368113Y-67875000D01*
X158368113Y-67875000D02*
X158334780Y-67941666D01*
X158334780Y-67941666D02*
X158301446Y-67975000D01*
X171408333Y-85168113D02*
X171074999Y-85168113D01*
X171074999Y-85168113D02*
X171074999Y-84468113D01*
X171575000Y-84468113D02*
X172008333Y-84468113D01*
X172008333Y-84468113D02*
X171775000Y-84734780D01*
X171775000Y-84734780D02*
X171875000Y-84734780D01*
X171875000Y-84734780D02*
X171941666Y-84768113D01*
X171941666Y-84768113D02*
X171975000Y-84801446D01*
X171975000Y-84801446D02*
X172008333Y-84868113D01*
X172008333Y-84868113D02*
X172008333Y-85034780D01*
X172008333Y-85034780D02*
X171975000Y-85101446D01*
X171975000Y-85101446D02*
X171941666Y-85134780D01*
X171941666Y-85134780D02*
X171875000Y-85168113D01*
X171875000Y-85168113D02*
X171675000Y-85168113D01*
X171675000Y-85168113D02*
X171608333Y-85134780D01*
X171608333Y-85134780D02*
X171575000Y-85101446D01*
X161733333Y-87418113D02*
X161733333Y-86718113D01*
X161733333Y-86718113D02*
X161900000Y-86718113D01*
X161900000Y-86718113D02*
X162000000Y-86751446D01*
X162000000Y-86751446D02*
X162066667Y-86818113D01*
X162066667Y-86818113D02*
X162100000Y-86884780D01*
X162100000Y-86884780D02*
X162133333Y-87018113D01*
X162133333Y-87018113D02*
X162133333Y-87118113D01*
X162133333Y-87118113D02*
X162100000Y-87251446D01*
X162100000Y-87251446D02*
X162066667Y-87318113D01*
X162066667Y-87318113D02*
X162000000Y-87384780D01*
X162000000Y-87384780D02*
X161900000Y-87418113D01*
X161900000Y-87418113D02*
X161733333Y-87418113D01*
X162400000Y-86784780D02*
X162433333Y-86751446D01*
X162433333Y-86751446D02*
X162500000Y-86718113D01*
X162500000Y-86718113D02*
X162666667Y-86718113D01*
X162666667Y-86718113D02*
X162733333Y-86751446D01*
X162733333Y-86751446D02*
X162766667Y-86784780D01*
X162766667Y-86784780D02*
X162800000Y-86851446D01*
X162800000Y-86851446D02*
X162800000Y-86918113D01*
X162800000Y-86918113D02*
X162766667Y-87018113D01*
X162766667Y-87018113D02*
X162366667Y-87418113D01*
X162366667Y-87418113D02*
X162800000Y-87418113D01*
X166883333Y-91668113D02*
X166650000Y-91334780D01*
X166483333Y-91668113D02*
X166483333Y-90968113D01*
X166483333Y-90968113D02*
X166750000Y-90968113D01*
X166750000Y-90968113D02*
X166816667Y-91001446D01*
X166816667Y-91001446D02*
X166850000Y-91034780D01*
X166850000Y-91034780D02*
X166883333Y-91101446D01*
X166883333Y-91101446D02*
X166883333Y-91201446D01*
X166883333Y-91201446D02*
X166850000Y-91268113D01*
X166850000Y-91268113D02*
X166816667Y-91301446D01*
X166816667Y-91301446D02*
X166750000Y-91334780D01*
X166750000Y-91334780D02*
X166483333Y-91334780D01*
X167283333Y-91268113D02*
X167216667Y-91234780D01*
X167216667Y-91234780D02*
X167183333Y-91201446D01*
X167183333Y-91201446D02*
X167150000Y-91134780D01*
X167150000Y-91134780D02*
X167150000Y-91101446D01*
X167150000Y-91101446D02*
X167183333Y-91034780D01*
X167183333Y-91034780D02*
X167216667Y-91001446D01*
X167216667Y-91001446D02*
X167283333Y-90968113D01*
X167283333Y-90968113D02*
X167416667Y-90968113D01*
X167416667Y-90968113D02*
X167483333Y-91001446D01*
X167483333Y-91001446D02*
X167516667Y-91034780D01*
X167516667Y-91034780D02*
X167550000Y-91101446D01*
X167550000Y-91101446D02*
X167550000Y-91134780D01*
X167550000Y-91134780D02*
X167516667Y-91201446D01*
X167516667Y-91201446D02*
X167483333Y-91234780D01*
X167483333Y-91234780D02*
X167416667Y-91268113D01*
X167416667Y-91268113D02*
X167283333Y-91268113D01*
X167283333Y-91268113D02*
X167216667Y-91301446D01*
X167216667Y-91301446D02*
X167183333Y-91334780D01*
X167183333Y-91334780D02*
X167150000Y-91401446D01*
X167150000Y-91401446D02*
X167150000Y-91534780D01*
X167150000Y-91534780D02*
X167183333Y-91601446D01*
X167183333Y-91601446D02*
X167216667Y-91634780D01*
X167216667Y-91634780D02*
X167283333Y-91668113D01*
X167283333Y-91668113D02*
X167416667Y-91668113D01*
X167416667Y-91668113D02*
X167483333Y-91634780D01*
X167483333Y-91634780D02*
X167516667Y-91601446D01*
X167516667Y-91601446D02*
X167550000Y-91534780D01*
X167550000Y-91534780D02*
X167550000Y-91401446D01*
X167550000Y-91401446D02*
X167516667Y-91334780D01*
X167516667Y-91334780D02*
X167483333Y-91301446D01*
X167483333Y-91301446D02*
X167416667Y-91268113D01*
X160168113Y-79616666D02*
X159468113Y-79616666D01*
X159468113Y-79616666D02*
X159468113Y-79449999D01*
X159468113Y-79449999D02*
X159501446Y-79349999D01*
X159501446Y-79349999D02*
X159568113Y-79283333D01*
X159568113Y-79283333D02*
X159634780Y-79249999D01*
X159634780Y-79249999D02*
X159768113Y-79216666D01*
X159768113Y-79216666D02*
X159868113Y-79216666D01*
X159868113Y-79216666D02*
X160001446Y-79249999D01*
X160001446Y-79249999D02*
X160068113Y-79283333D01*
X160068113Y-79283333D02*
X160134780Y-79349999D01*
X160134780Y-79349999D02*
X160168113Y-79449999D01*
X160168113Y-79449999D02*
X160168113Y-79616666D01*
X159468113Y-78983333D02*
X159468113Y-78549999D01*
X159468113Y-78549999D02*
X159734780Y-78783333D01*
X159734780Y-78783333D02*
X159734780Y-78683333D01*
X159734780Y-78683333D02*
X159768113Y-78616666D01*
X159768113Y-78616666D02*
X159801446Y-78583333D01*
X159801446Y-78583333D02*
X159868113Y-78549999D01*
X159868113Y-78549999D02*
X160034780Y-78549999D01*
X160034780Y-78549999D02*
X160101446Y-78583333D01*
X160101446Y-78583333D02*
X160134780Y-78616666D01*
X160134780Y-78616666D02*
X160168113Y-78683333D01*
X160168113Y-78683333D02*
X160168113Y-78883333D01*
X160168113Y-78883333D02*
X160134780Y-78949999D01*
X160134780Y-78949999D02*
X160101446Y-78983333D01*
X190951446Y-89383333D02*
X190984780Y-89283333D01*
X190984780Y-89283333D02*
X191018113Y-89249999D01*
X191018113Y-89249999D02*
X191084780Y-89216666D01*
X191084780Y-89216666D02*
X191184780Y-89216666D01*
X191184780Y-89216666D02*
X191251446Y-89249999D01*
X191251446Y-89249999D02*
X191284780Y-89283333D01*
X191284780Y-89283333D02*
X191318113Y-89349999D01*
X191318113Y-89349999D02*
X191318113Y-89616666D01*
X191318113Y-89616666D02*
X190618113Y-89616666D01*
X190618113Y-89616666D02*
X190618113Y-89383333D01*
X190618113Y-89383333D02*
X190651446Y-89316666D01*
X190651446Y-89316666D02*
X190684780Y-89283333D01*
X190684780Y-89283333D02*
X190751446Y-89249999D01*
X190751446Y-89249999D02*
X190818113Y-89249999D01*
X190818113Y-89249999D02*
X190884780Y-89283333D01*
X190884780Y-89283333D02*
X190918113Y-89316666D01*
X190918113Y-89316666D02*
X190951446Y-89383333D01*
X190951446Y-89383333D02*
X190951446Y-89616666D01*
X190618113Y-88783333D02*
X190618113Y-88649999D01*
X190618113Y-88649999D02*
X190651446Y-88583333D01*
X190651446Y-88583333D02*
X190718113Y-88516666D01*
X190718113Y-88516666D02*
X190851446Y-88483333D01*
X190851446Y-88483333D02*
X191084780Y-88483333D01*
X191084780Y-88483333D02*
X191218113Y-88516666D01*
X191218113Y-88516666D02*
X191284780Y-88583333D01*
X191284780Y-88583333D02*
X191318113Y-88649999D01*
X191318113Y-88649999D02*
X191318113Y-88783333D01*
X191318113Y-88783333D02*
X191284780Y-88849999D01*
X191284780Y-88849999D02*
X191218113Y-88916666D01*
X191218113Y-88916666D02*
X191084780Y-88949999D01*
X191084780Y-88949999D02*
X190851446Y-88949999D01*
X190851446Y-88949999D02*
X190718113Y-88916666D01*
X190718113Y-88916666D02*
X190651446Y-88849999D01*
X190651446Y-88849999D02*
X190618113Y-88783333D01*
X190618113Y-88050000D02*
X190618113Y-87916666D01*
X190618113Y-87916666D02*
X190651446Y-87850000D01*
X190651446Y-87850000D02*
X190718113Y-87783333D01*
X190718113Y-87783333D02*
X190851446Y-87750000D01*
X190851446Y-87750000D02*
X191084780Y-87750000D01*
X191084780Y-87750000D02*
X191218113Y-87783333D01*
X191218113Y-87783333D02*
X191284780Y-87850000D01*
X191284780Y-87850000D02*
X191318113Y-87916666D01*
X191318113Y-87916666D02*
X191318113Y-88050000D01*
X191318113Y-88050000D02*
X191284780Y-88116666D01*
X191284780Y-88116666D02*
X191218113Y-88183333D01*
X191218113Y-88183333D02*
X191084780Y-88216666D01*
X191084780Y-88216666D02*
X190851446Y-88216666D01*
X190851446Y-88216666D02*
X190718113Y-88183333D01*
X190718113Y-88183333D02*
X190651446Y-88116666D01*
X190651446Y-88116666D02*
X190618113Y-88050000D01*
X190618113Y-87550000D02*
X190618113Y-87150000D01*
X191318113Y-87350000D02*
X190618113Y-87350000D01*
X191318113Y-86550000D02*
X191318113Y-86950000D01*
X191318113Y-86750000D02*
X190618113Y-86750000D01*
X190618113Y-86750000D02*
X190718113Y-86816667D01*
X190718113Y-86816667D02*
X190784780Y-86883334D01*
X190784780Y-86883334D02*
X190818113Y-86950000D01*
X166516666Y-82868113D02*
X166516666Y-83434780D01*
X166516666Y-83434780D02*
X166550000Y-83501446D01*
X166550000Y-83501446D02*
X166583333Y-83534780D01*
X166583333Y-83534780D02*
X166650000Y-83568113D01*
X166650000Y-83568113D02*
X166783333Y-83568113D01*
X166783333Y-83568113D02*
X166850000Y-83534780D01*
X166850000Y-83534780D02*
X166883333Y-83501446D01*
X166883333Y-83501446D02*
X166916666Y-83434780D01*
X166916666Y-83434780D02*
X166916666Y-82868113D01*
X167549999Y-83101446D02*
X167549999Y-83568113D01*
X167383333Y-82834780D02*
X167216666Y-83334780D01*
X167216666Y-83334780D02*
X167649999Y-83334780D01*
X186901446Y-75800000D02*
X186934780Y-75833333D01*
X186934780Y-75833333D02*
X186968113Y-75933333D01*
X186968113Y-75933333D02*
X186968113Y-76000000D01*
X186968113Y-76000000D02*
X186934780Y-76100000D01*
X186934780Y-76100000D02*
X186868113Y-76166667D01*
X186868113Y-76166667D02*
X186801446Y-76200000D01*
X186801446Y-76200000D02*
X186668113Y-76233333D01*
X186668113Y-76233333D02*
X186568113Y-76233333D01*
X186568113Y-76233333D02*
X186434780Y-76200000D01*
X186434780Y-76200000D02*
X186368113Y-76166667D01*
X186368113Y-76166667D02*
X186301446Y-76100000D01*
X186301446Y-76100000D02*
X186268113Y-76000000D01*
X186268113Y-76000000D02*
X186268113Y-75933333D01*
X186268113Y-75933333D02*
X186301446Y-75833333D01*
X186301446Y-75833333D02*
X186334780Y-75800000D01*
X186334780Y-75533333D02*
X186301446Y-75500000D01*
X186301446Y-75500000D02*
X186268113Y-75433333D01*
X186268113Y-75433333D02*
X186268113Y-75266667D01*
X186268113Y-75266667D02*
X186301446Y-75200000D01*
X186301446Y-75200000D02*
X186334780Y-75166667D01*
X186334780Y-75166667D02*
X186401446Y-75133333D01*
X186401446Y-75133333D02*
X186468113Y-75133333D01*
X186468113Y-75133333D02*
X186568113Y-75166667D01*
X186568113Y-75166667D02*
X186968113Y-75566667D01*
X186968113Y-75566667D02*
X186968113Y-75133333D01*
X186268113Y-74900000D02*
X186268113Y-74466666D01*
X186268113Y-74466666D02*
X186534780Y-74700000D01*
X186534780Y-74700000D02*
X186534780Y-74600000D01*
X186534780Y-74600000D02*
X186568113Y-74533333D01*
X186568113Y-74533333D02*
X186601446Y-74500000D01*
X186601446Y-74500000D02*
X186668113Y-74466666D01*
X186668113Y-74466666D02*
X186834780Y-74466666D01*
X186834780Y-74466666D02*
X186901446Y-74500000D01*
X186901446Y-74500000D02*
X186934780Y-74533333D01*
X186934780Y-74533333D02*
X186968113Y-74600000D01*
X186968113Y-74600000D02*
X186968113Y-74800000D01*
X186968113Y-74800000D02*
X186934780Y-74866666D01*
X186934780Y-74866666D02*
X186901446Y-74900000D01*
X154334780Y-65433333D02*
X154368113Y-65333333D01*
X154368113Y-65333333D02*
X154368113Y-65166667D01*
X154368113Y-65166667D02*
X154334780Y-65100000D01*
X154334780Y-65100000D02*
X154301446Y-65066667D01*
X154301446Y-65066667D02*
X154234780Y-65033333D01*
X154234780Y-65033333D02*
X154168113Y-65033333D01*
X154168113Y-65033333D02*
X154101446Y-65066667D01*
X154101446Y-65066667D02*
X154068113Y-65100000D01*
X154068113Y-65100000D02*
X154034780Y-65166667D01*
X154034780Y-65166667D02*
X154001446Y-65300000D01*
X154001446Y-65300000D02*
X153968113Y-65366667D01*
X153968113Y-65366667D02*
X153934780Y-65400000D01*
X153934780Y-65400000D02*
X153868113Y-65433333D01*
X153868113Y-65433333D02*
X153801446Y-65433333D01*
X153801446Y-65433333D02*
X153734780Y-65400000D01*
X153734780Y-65400000D02*
X153701446Y-65366667D01*
X153701446Y-65366667D02*
X153668113Y-65300000D01*
X153668113Y-65300000D02*
X153668113Y-65133333D01*
X153668113Y-65133333D02*
X153701446Y-65033333D01*
X154001446Y-64733333D02*
X154001446Y-64500000D01*
X154368113Y-64400000D02*
X154368113Y-64733333D01*
X154368113Y-64733333D02*
X153668113Y-64733333D01*
X153668113Y-64733333D02*
X153668113Y-64400000D01*
X154368113Y-63766667D02*
X154368113Y-64100000D01*
X154368113Y-64100000D02*
X153668113Y-64100000D01*
X154368113Y-63166666D02*
X154368113Y-63566666D01*
X154368113Y-63366666D02*
X153668113Y-63366666D01*
X153668113Y-63366666D02*
X153768113Y-63433333D01*
X153768113Y-63433333D02*
X153834780Y-63500000D01*
X153834780Y-63500000D02*
X153868113Y-63566666D01*
X182751446Y-66700000D02*
X182784780Y-66733333D01*
X182784780Y-66733333D02*
X182818113Y-66833333D01*
X182818113Y-66833333D02*
X182818113Y-66900000D01*
X182818113Y-66900000D02*
X182784780Y-67000000D01*
X182784780Y-67000000D02*
X182718113Y-67066667D01*
X182718113Y-67066667D02*
X182651446Y-67100000D01*
X182651446Y-67100000D02*
X182518113Y-67133333D01*
X182518113Y-67133333D02*
X182418113Y-67133333D01*
X182418113Y-67133333D02*
X182284780Y-67100000D01*
X182284780Y-67100000D02*
X182218113Y-67066667D01*
X182218113Y-67066667D02*
X182151446Y-67000000D01*
X182151446Y-67000000D02*
X182118113Y-66900000D01*
X182118113Y-66900000D02*
X182118113Y-66833333D01*
X182118113Y-66833333D02*
X182151446Y-66733333D01*
X182151446Y-66733333D02*
X182184780Y-66700000D01*
X182818113Y-66033333D02*
X182818113Y-66433333D01*
X182818113Y-66233333D02*
X182118113Y-66233333D01*
X182118113Y-66233333D02*
X182218113Y-66300000D01*
X182218113Y-66300000D02*
X182284780Y-66366667D01*
X182284780Y-66366667D02*
X182318113Y-66433333D01*
X182118113Y-65433333D02*
X182118113Y-65566666D01*
X182118113Y-65566666D02*
X182151446Y-65633333D01*
X182151446Y-65633333D02*
X182184780Y-65666666D01*
X182184780Y-65666666D02*
X182284780Y-65733333D01*
X182284780Y-65733333D02*
X182418113Y-65766666D01*
X182418113Y-65766666D02*
X182684780Y-65766666D01*
X182684780Y-65766666D02*
X182751446Y-65733333D01*
X182751446Y-65733333D02*
X182784780Y-65700000D01*
X182784780Y-65700000D02*
X182818113Y-65633333D01*
X182818113Y-65633333D02*
X182818113Y-65500000D01*
X182818113Y-65500000D02*
X182784780Y-65433333D01*
X182784780Y-65433333D02*
X182751446Y-65400000D01*
X182751446Y-65400000D02*
X182684780Y-65366666D01*
X182684780Y-65366666D02*
X182518113Y-65366666D01*
X182518113Y-65366666D02*
X182451446Y-65400000D01*
X182451446Y-65400000D02*
X182418113Y-65433333D01*
X182418113Y-65433333D02*
X182384780Y-65500000D01*
X182384780Y-65500000D02*
X182384780Y-65633333D01*
X182384780Y-65633333D02*
X182418113Y-65700000D01*
X182418113Y-65700000D02*
X182451446Y-65733333D01*
X182451446Y-65733333D02*
X182518113Y-65766666D01*
X187618113Y-86083333D02*
X188118113Y-86083333D01*
X188118113Y-86083333D02*
X188218113Y-86116666D01*
X188218113Y-86116666D02*
X188284780Y-86183333D01*
X188284780Y-86183333D02*
X188318113Y-86283333D01*
X188318113Y-86283333D02*
X188318113Y-86350000D01*
X187684780Y-85783333D02*
X187651446Y-85750000D01*
X187651446Y-85750000D02*
X187618113Y-85683333D01*
X187618113Y-85683333D02*
X187618113Y-85516667D01*
X187618113Y-85516667D02*
X187651446Y-85450000D01*
X187651446Y-85450000D02*
X187684780Y-85416667D01*
X187684780Y-85416667D02*
X187751446Y-85383333D01*
X187751446Y-85383333D02*
X187818113Y-85383333D01*
X187818113Y-85383333D02*
X187918113Y-85416667D01*
X187918113Y-85416667D02*
X188318113Y-85816667D01*
X188318113Y-85816667D02*
X188318113Y-85383333D01*
X184549999Y-67321446D02*
X184516666Y-67354780D01*
X184516666Y-67354780D02*
X184416666Y-67388113D01*
X184416666Y-67388113D02*
X184349999Y-67388113D01*
X184349999Y-67388113D02*
X184249999Y-67354780D01*
X184249999Y-67354780D02*
X184183333Y-67288113D01*
X184183333Y-67288113D02*
X184149999Y-67221446D01*
X184149999Y-67221446D02*
X184116666Y-67088113D01*
X184116666Y-67088113D02*
X184116666Y-66988113D01*
X184116666Y-66988113D02*
X184149999Y-66854780D01*
X184149999Y-66854780D02*
X184183333Y-66788113D01*
X184183333Y-66788113D02*
X184249999Y-66721446D01*
X184249999Y-66721446D02*
X184349999Y-66688113D01*
X184349999Y-66688113D02*
X184416666Y-66688113D01*
X184416666Y-66688113D02*
X184516666Y-66721446D01*
X184516666Y-66721446D02*
X184549999Y-66754780D01*
X184816666Y-66754780D02*
X184849999Y-66721446D01*
X184849999Y-66721446D02*
X184916666Y-66688113D01*
X184916666Y-66688113D02*
X185083333Y-66688113D01*
X185083333Y-66688113D02*
X185149999Y-66721446D01*
X185149999Y-66721446D02*
X185183333Y-66754780D01*
X185183333Y-66754780D02*
X185216666Y-66821446D01*
X185216666Y-66821446D02*
X185216666Y-66888113D01*
X185216666Y-66888113D02*
X185183333Y-66988113D01*
X185183333Y-66988113D02*
X184783333Y-67388113D01*
X184783333Y-67388113D02*
X185216666Y-67388113D01*
X185650000Y-66688113D02*
X185716666Y-66688113D01*
X185716666Y-66688113D02*
X185783333Y-66721446D01*
X185783333Y-66721446D02*
X185816666Y-66754780D01*
X185816666Y-66754780D02*
X185850000Y-66821446D01*
X185850000Y-66821446D02*
X185883333Y-66954780D01*
X185883333Y-66954780D02*
X185883333Y-67121446D01*
X185883333Y-67121446D02*
X185850000Y-67254780D01*
X185850000Y-67254780D02*
X185816666Y-67321446D01*
X185816666Y-67321446D02*
X185783333Y-67354780D01*
X185783333Y-67354780D02*
X185716666Y-67388113D01*
X185716666Y-67388113D02*
X185650000Y-67388113D01*
X185650000Y-67388113D02*
X185583333Y-67354780D01*
X185583333Y-67354780D02*
X185550000Y-67321446D01*
X185550000Y-67321446D02*
X185516666Y-67254780D01*
X185516666Y-67254780D02*
X185483333Y-67121446D01*
X185483333Y-67121446D02*
X185483333Y-66954780D01*
X185483333Y-66954780D02*
X185516666Y-66821446D01*
X185516666Y-66821446D02*
X185550000Y-66754780D01*
X185550000Y-66754780D02*
X185583333Y-66721446D01*
X185583333Y-66721446D02*
X185650000Y-66688113D01*
X192818113Y-99800000D02*
X192484780Y-100033333D01*
X192818113Y-100200000D02*
X192118113Y-100200000D01*
X192118113Y-100200000D02*
X192118113Y-99933333D01*
X192118113Y-99933333D02*
X192151446Y-99866667D01*
X192151446Y-99866667D02*
X192184780Y-99833333D01*
X192184780Y-99833333D02*
X192251446Y-99800000D01*
X192251446Y-99800000D02*
X192351446Y-99800000D01*
X192351446Y-99800000D02*
X192418113Y-99833333D01*
X192418113Y-99833333D02*
X192451446Y-99866667D01*
X192451446Y-99866667D02*
X192484780Y-99933333D01*
X192484780Y-99933333D02*
X192484780Y-100200000D01*
X192818113Y-99133333D02*
X192818113Y-99533333D01*
X192818113Y-99333333D02*
X192118113Y-99333333D01*
X192118113Y-99333333D02*
X192218113Y-99400000D01*
X192218113Y-99400000D02*
X192284780Y-99466667D01*
X192284780Y-99466667D02*
X192318113Y-99533333D01*
X192118113Y-98700000D02*
X192118113Y-98633333D01*
X192118113Y-98633333D02*
X192151446Y-98566666D01*
X192151446Y-98566666D02*
X192184780Y-98533333D01*
X192184780Y-98533333D02*
X192251446Y-98500000D01*
X192251446Y-98500000D02*
X192384780Y-98466666D01*
X192384780Y-98466666D02*
X192551446Y-98466666D01*
X192551446Y-98466666D02*
X192684780Y-98500000D01*
X192684780Y-98500000D02*
X192751446Y-98533333D01*
X192751446Y-98533333D02*
X192784780Y-98566666D01*
X192784780Y-98566666D02*
X192818113Y-98633333D01*
X192818113Y-98633333D02*
X192818113Y-98700000D01*
X192818113Y-98700000D02*
X192784780Y-98766666D01*
X192784780Y-98766666D02*
X192751446Y-98800000D01*
X192751446Y-98800000D02*
X192684780Y-98833333D01*
X192684780Y-98833333D02*
X192551446Y-98866666D01*
X192551446Y-98866666D02*
X192384780Y-98866666D01*
X192384780Y-98866666D02*
X192251446Y-98833333D01*
X192251446Y-98833333D02*
X192184780Y-98800000D01*
X192184780Y-98800000D02*
X192151446Y-98766666D01*
X192151446Y-98766666D02*
X192118113Y-98700000D01*
X185251446Y-85550000D02*
X185284780Y-85583333D01*
X185284780Y-85583333D02*
X185318113Y-85683333D01*
X185318113Y-85683333D02*
X185318113Y-85750000D01*
X185318113Y-85750000D02*
X185284780Y-85850000D01*
X185284780Y-85850000D02*
X185218113Y-85916667D01*
X185218113Y-85916667D02*
X185151446Y-85950000D01*
X185151446Y-85950000D02*
X185018113Y-85983333D01*
X185018113Y-85983333D02*
X184918113Y-85983333D01*
X184918113Y-85983333D02*
X184784780Y-85950000D01*
X184784780Y-85950000D02*
X184718113Y-85916667D01*
X184718113Y-85916667D02*
X184651446Y-85850000D01*
X184651446Y-85850000D02*
X184618113Y-85750000D01*
X184618113Y-85750000D02*
X184618113Y-85683333D01*
X184618113Y-85683333D02*
X184651446Y-85583333D01*
X184651446Y-85583333D02*
X184684780Y-85550000D01*
X184684780Y-85283333D02*
X184651446Y-85250000D01*
X184651446Y-85250000D02*
X184618113Y-85183333D01*
X184618113Y-85183333D02*
X184618113Y-85016667D01*
X184618113Y-85016667D02*
X184651446Y-84950000D01*
X184651446Y-84950000D02*
X184684780Y-84916667D01*
X184684780Y-84916667D02*
X184751446Y-84883333D01*
X184751446Y-84883333D02*
X184818113Y-84883333D01*
X184818113Y-84883333D02*
X184918113Y-84916667D01*
X184918113Y-84916667D02*
X185318113Y-85316667D01*
X185318113Y-85316667D02*
X185318113Y-84883333D01*
X184618113Y-84250000D02*
X184618113Y-84583333D01*
X184618113Y-84583333D02*
X184951446Y-84616666D01*
X184951446Y-84616666D02*
X184918113Y-84583333D01*
X184918113Y-84583333D02*
X184884780Y-84516666D01*
X184884780Y-84516666D02*
X184884780Y-84350000D01*
X184884780Y-84350000D02*
X184918113Y-84283333D01*
X184918113Y-84283333D02*
X184951446Y-84250000D01*
X184951446Y-84250000D02*
X185018113Y-84216666D01*
X185018113Y-84216666D02*
X185184780Y-84216666D01*
X185184780Y-84216666D02*
X185251446Y-84250000D01*
X185251446Y-84250000D02*
X185284780Y-84283333D01*
X185284780Y-84283333D02*
X185318113Y-84350000D01*
X185318113Y-84350000D02*
X185318113Y-84516666D01*
X185318113Y-84516666D02*
X185284780Y-84583333D01*
X185284780Y-84583333D02*
X185251446Y-84616666D01*
X189633333Y-67318113D02*
X189400000Y-66984780D01*
X189233333Y-67318113D02*
X189233333Y-66618113D01*
X189233333Y-66618113D02*
X189500000Y-66618113D01*
X189500000Y-66618113D02*
X189566667Y-66651446D01*
X189566667Y-66651446D02*
X189600000Y-66684780D01*
X189600000Y-66684780D02*
X189633333Y-66751446D01*
X189633333Y-66751446D02*
X189633333Y-66851446D01*
X189633333Y-66851446D02*
X189600000Y-66918113D01*
X189600000Y-66918113D02*
X189566667Y-66951446D01*
X189566667Y-66951446D02*
X189500000Y-66984780D01*
X189500000Y-66984780D02*
X189233333Y-66984780D01*
X190233333Y-66851446D02*
X190233333Y-67318113D01*
X190066667Y-66584780D02*
X189900000Y-67084780D01*
X189900000Y-67084780D02*
X190333333Y-67084780D01*
X162749999Y-97968113D02*
X162516666Y-97634780D01*
X162349999Y-97968113D02*
X162349999Y-97268113D01*
X162349999Y-97268113D02*
X162616666Y-97268113D01*
X162616666Y-97268113D02*
X162683333Y-97301446D01*
X162683333Y-97301446D02*
X162716666Y-97334780D01*
X162716666Y-97334780D02*
X162749999Y-97401446D01*
X162749999Y-97401446D02*
X162749999Y-97501446D01*
X162749999Y-97501446D02*
X162716666Y-97568113D01*
X162716666Y-97568113D02*
X162683333Y-97601446D01*
X162683333Y-97601446D02*
X162616666Y-97634780D01*
X162616666Y-97634780D02*
X162349999Y-97634780D01*
X163416666Y-97968113D02*
X163016666Y-97968113D01*
X163216666Y-97968113D02*
X163216666Y-97268113D01*
X163216666Y-97268113D02*
X163149999Y-97368113D01*
X163149999Y-97368113D02*
X163083333Y-97434780D01*
X163083333Y-97434780D02*
X163016666Y-97468113D01*
X163683333Y-97334780D02*
X163716666Y-97301446D01*
X163716666Y-97301446D02*
X163783333Y-97268113D01*
X163783333Y-97268113D02*
X163950000Y-97268113D01*
X163950000Y-97268113D02*
X164016666Y-97301446D01*
X164016666Y-97301446D02*
X164050000Y-97334780D01*
X164050000Y-97334780D02*
X164083333Y-97401446D01*
X164083333Y-97401446D02*
X164083333Y-97468113D01*
X164083333Y-97468113D02*
X164050000Y-97568113D01*
X164050000Y-97568113D02*
X163650000Y-97968113D01*
X163650000Y-97968113D02*
X164083333Y-97968113D01*
X156618113Y-68875000D02*
X156284780Y-69108333D01*
X156618113Y-69275000D02*
X155918113Y-69275000D01*
X155918113Y-69275000D02*
X155918113Y-69008333D01*
X155918113Y-69008333D02*
X155951446Y-68941667D01*
X155951446Y-68941667D02*
X155984780Y-68908333D01*
X155984780Y-68908333D02*
X156051446Y-68875000D01*
X156051446Y-68875000D02*
X156151446Y-68875000D01*
X156151446Y-68875000D02*
X156218113Y-68908333D01*
X156218113Y-68908333D02*
X156251446Y-68941667D01*
X156251446Y-68941667D02*
X156284780Y-69008333D01*
X156284780Y-69008333D02*
X156284780Y-69275000D01*
X156618113Y-68208333D02*
X156618113Y-68608333D01*
X156618113Y-68408333D02*
X155918113Y-68408333D01*
X155918113Y-68408333D02*
X156018113Y-68475000D01*
X156018113Y-68475000D02*
X156084780Y-68541667D01*
X156084780Y-68541667D02*
X156118113Y-68608333D01*
X156151446Y-67608333D02*
X156618113Y-67608333D01*
X155884780Y-67775000D02*
X156384780Y-67941666D01*
X156384780Y-67941666D02*
X156384780Y-67508333D01*
X170126666Y-86468113D02*
X170126666Y-87034780D01*
X170126666Y-87034780D02*
X170160000Y-87101446D01*
X170160000Y-87101446D02*
X170193333Y-87134780D01*
X170193333Y-87134780D02*
X170260000Y-87168113D01*
X170260000Y-87168113D02*
X170393333Y-87168113D01*
X170393333Y-87168113D02*
X170460000Y-87134780D01*
X170460000Y-87134780D02*
X170493333Y-87101446D01*
X170493333Y-87101446D02*
X170526666Y-87034780D01*
X170526666Y-87034780D02*
X170526666Y-86468113D01*
X171226666Y-87168113D02*
X170826666Y-87168113D01*
X171026666Y-87168113D02*
X171026666Y-86468113D01*
X171026666Y-86468113D02*
X170959999Y-86568113D01*
X170959999Y-86568113D02*
X170893333Y-86634780D01*
X170893333Y-86634780D02*
X170826666Y-86668113D01*
X158149999Y-81720113D02*
X157916666Y-81386780D01*
X157749999Y-81720113D02*
X157749999Y-81020113D01*
X157749999Y-81020113D02*
X158016666Y-81020113D01*
X158016666Y-81020113D02*
X158083333Y-81053446D01*
X158083333Y-81053446D02*
X158116666Y-81086780D01*
X158116666Y-81086780D02*
X158149999Y-81153446D01*
X158149999Y-81153446D02*
X158149999Y-81253446D01*
X158149999Y-81253446D02*
X158116666Y-81320113D01*
X158116666Y-81320113D02*
X158083333Y-81353446D01*
X158083333Y-81353446D02*
X158016666Y-81386780D01*
X158016666Y-81386780D02*
X157749999Y-81386780D01*
X158383333Y-81020113D02*
X158849999Y-81720113D01*
X158849999Y-81020113D02*
X158383333Y-81720113D01*
X159483333Y-81720113D02*
X159083333Y-81720113D01*
X159283333Y-81720113D02*
X159283333Y-81020113D01*
X159283333Y-81020113D02*
X159216666Y-81120113D01*
X159216666Y-81120113D02*
X159150000Y-81186780D01*
X159150000Y-81186780D02*
X159083333Y-81220113D01*
X187251446Y-84966666D02*
X187284780Y-84999999D01*
X187284780Y-84999999D02*
X187318113Y-85099999D01*
X187318113Y-85099999D02*
X187318113Y-85166666D01*
X187318113Y-85166666D02*
X187284780Y-85266666D01*
X187284780Y-85266666D02*
X187218113Y-85333333D01*
X187218113Y-85333333D02*
X187151446Y-85366666D01*
X187151446Y-85366666D02*
X187018113Y-85399999D01*
X187018113Y-85399999D02*
X186918113Y-85399999D01*
X186918113Y-85399999D02*
X186784780Y-85366666D01*
X186784780Y-85366666D02*
X186718113Y-85333333D01*
X186718113Y-85333333D02*
X186651446Y-85266666D01*
X186651446Y-85266666D02*
X186618113Y-85166666D01*
X186618113Y-85166666D02*
X186618113Y-85099999D01*
X186618113Y-85099999D02*
X186651446Y-84999999D01*
X186651446Y-84999999D02*
X186684780Y-84966666D01*
X186618113Y-84733333D02*
X186618113Y-84299999D01*
X186618113Y-84299999D02*
X186884780Y-84533333D01*
X186884780Y-84533333D02*
X186884780Y-84433333D01*
X186884780Y-84433333D02*
X186918113Y-84366666D01*
X186918113Y-84366666D02*
X186951446Y-84333333D01*
X186951446Y-84333333D02*
X187018113Y-84299999D01*
X187018113Y-84299999D02*
X187184780Y-84299999D01*
X187184780Y-84299999D02*
X187251446Y-84333333D01*
X187251446Y-84333333D02*
X187284780Y-84366666D01*
X187284780Y-84366666D02*
X187318113Y-84433333D01*
X187318113Y-84433333D02*
X187318113Y-84633333D01*
X187318113Y-84633333D02*
X187284780Y-84699999D01*
X187284780Y-84699999D02*
X187251446Y-84733333D01*
X183501446Y-83716666D02*
X183534780Y-83749999D01*
X183534780Y-83749999D02*
X183568113Y-83849999D01*
X183568113Y-83849999D02*
X183568113Y-83916666D01*
X183568113Y-83916666D02*
X183534780Y-84016666D01*
X183534780Y-84016666D02*
X183468113Y-84083333D01*
X183468113Y-84083333D02*
X183401446Y-84116666D01*
X183401446Y-84116666D02*
X183268113Y-84149999D01*
X183268113Y-84149999D02*
X183168113Y-84149999D01*
X183168113Y-84149999D02*
X183034780Y-84116666D01*
X183034780Y-84116666D02*
X182968113Y-84083333D01*
X182968113Y-84083333D02*
X182901446Y-84016666D01*
X182901446Y-84016666D02*
X182868113Y-83916666D01*
X182868113Y-83916666D02*
X182868113Y-83849999D01*
X182868113Y-83849999D02*
X182901446Y-83749999D01*
X182901446Y-83749999D02*
X182934780Y-83716666D01*
X182934780Y-83449999D02*
X182901446Y-83416666D01*
X182901446Y-83416666D02*
X182868113Y-83349999D01*
X182868113Y-83349999D02*
X182868113Y-83183333D01*
X182868113Y-83183333D02*
X182901446Y-83116666D01*
X182901446Y-83116666D02*
X182934780Y-83083333D01*
X182934780Y-83083333D02*
X183001446Y-83049999D01*
X183001446Y-83049999D02*
X183068113Y-83049999D01*
X183068113Y-83049999D02*
X183168113Y-83083333D01*
X183168113Y-83083333D02*
X183568113Y-83483333D01*
X183568113Y-83483333D02*
X183568113Y-83049999D01*
X155233333Y-81020113D02*
X155633333Y-81020113D01*
X155433333Y-81720113D02*
X155433333Y-81020113D01*
X155800000Y-81020113D02*
X156266666Y-81720113D01*
X156266666Y-81020113D02*
X155800000Y-81720113D01*
X156900000Y-81720113D02*
X156500000Y-81720113D01*
X156700000Y-81720113D02*
X156700000Y-81020113D01*
X156700000Y-81020113D02*
X156633333Y-81120113D01*
X156633333Y-81120113D02*
X156566667Y-81186780D01*
X156566667Y-81186780D02*
X156500000Y-81220113D01*
X181251446Y-66700000D02*
X181284780Y-66733333D01*
X181284780Y-66733333D02*
X181318113Y-66833333D01*
X181318113Y-66833333D02*
X181318113Y-66900000D01*
X181318113Y-66900000D02*
X181284780Y-67000000D01*
X181284780Y-67000000D02*
X181218113Y-67066667D01*
X181218113Y-67066667D02*
X181151446Y-67100000D01*
X181151446Y-67100000D02*
X181018113Y-67133333D01*
X181018113Y-67133333D02*
X180918113Y-67133333D01*
X180918113Y-67133333D02*
X180784780Y-67100000D01*
X180784780Y-67100000D02*
X180718113Y-67066667D01*
X180718113Y-67066667D02*
X180651446Y-67000000D01*
X180651446Y-67000000D02*
X180618113Y-66900000D01*
X180618113Y-66900000D02*
X180618113Y-66833333D01*
X180618113Y-66833333D02*
X180651446Y-66733333D01*
X180651446Y-66733333D02*
X180684780Y-66700000D01*
X181318113Y-66033333D02*
X181318113Y-66433333D01*
X181318113Y-66233333D02*
X180618113Y-66233333D01*
X180618113Y-66233333D02*
X180718113Y-66300000D01*
X180718113Y-66300000D02*
X180784780Y-66366667D01*
X180784780Y-66366667D02*
X180818113Y-66433333D01*
X180918113Y-65633333D02*
X180884780Y-65700000D01*
X180884780Y-65700000D02*
X180851446Y-65733333D01*
X180851446Y-65733333D02*
X180784780Y-65766666D01*
X180784780Y-65766666D02*
X180751446Y-65766666D01*
X180751446Y-65766666D02*
X180684780Y-65733333D01*
X180684780Y-65733333D02*
X180651446Y-65700000D01*
X180651446Y-65700000D02*
X180618113Y-65633333D01*
X180618113Y-65633333D02*
X180618113Y-65500000D01*
X180618113Y-65500000D02*
X180651446Y-65433333D01*
X180651446Y-65433333D02*
X180684780Y-65400000D01*
X180684780Y-65400000D02*
X180751446Y-65366666D01*
X180751446Y-65366666D02*
X180784780Y-65366666D01*
X180784780Y-65366666D02*
X180851446Y-65400000D01*
X180851446Y-65400000D02*
X180884780Y-65433333D01*
X180884780Y-65433333D02*
X180918113Y-65500000D01*
X180918113Y-65500000D02*
X180918113Y-65633333D01*
X180918113Y-65633333D02*
X180951446Y-65700000D01*
X180951446Y-65700000D02*
X180984780Y-65733333D01*
X180984780Y-65733333D02*
X181051446Y-65766666D01*
X181051446Y-65766666D02*
X181184780Y-65766666D01*
X181184780Y-65766666D02*
X181251446Y-65733333D01*
X181251446Y-65733333D02*
X181284780Y-65700000D01*
X181284780Y-65700000D02*
X181318113Y-65633333D01*
X181318113Y-65633333D02*
X181318113Y-65500000D01*
X181318113Y-65500000D02*
X181284780Y-65433333D01*
X181284780Y-65433333D02*
X181251446Y-65400000D01*
X181251446Y-65400000D02*
X181184780Y-65366666D01*
X181184780Y-65366666D02*
X181051446Y-65366666D01*
X181051446Y-65366666D02*
X180984780Y-65400000D01*
X180984780Y-65400000D02*
X180951446Y-65433333D01*
X180951446Y-65433333D02*
X180918113Y-65500000D01*
X190299999Y-97601446D02*
X190266666Y-97634780D01*
X190266666Y-97634780D02*
X190166666Y-97668113D01*
X190166666Y-97668113D02*
X190099999Y-97668113D01*
X190099999Y-97668113D02*
X189999999Y-97634780D01*
X189999999Y-97634780D02*
X189933333Y-97568113D01*
X189933333Y-97568113D02*
X189899999Y-97501446D01*
X189899999Y-97501446D02*
X189866666Y-97368113D01*
X189866666Y-97368113D02*
X189866666Y-97268113D01*
X189866666Y-97268113D02*
X189899999Y-97134780D01*
X189899999Y-97134780D02*
X189933333Y-97068113D01*
X189933333Y-97068113D02*
X189999999Y-97001446D01*
X189999999Y-97001446D02*
X190099999Y-96968113D01*
X190099999Y-96968113D02*
X190166666Y-96968113D01*
X190166666Y-96968113D02*
X190266666Y-97001446D01*
X190266666Y-97001446D02*
X190299999Y-97034780D01*
X190533333Y-96968113D02*
X190966666Y-96968113D01*
X190966666Y-96968113D02*
X190733333Y-97234780D01*
X190733333Y-97234780D02*
X190833333Y-97234780D01*
X190833333Y-97234780D02*
X190899999Y-97268113D01*
X190899999Y-97268113D02*
X190933333Y-97301446D01*
X190933333Y-97301446D02*
X190966666Y-97368113D01*
X190966666Y-97368113D02*
X190966666Y-97534780D01*
X190966666Y-97534780D02*
X190933333Y-97601446D01*
X190933333Y-97601446D02*
X190899999Y-97634780D01*
X190899999Y-97634780D02*
X190833333Y-97668113D01*
X190833333Y-97668113D02*
X190633333Y-97668113D01*
X190633333Y-97668113D02*
X190566666Y-97634780D01*
X190566666Y-97634780D02*
X190533333Y-97601446D01*
X191200000Y-96968113D02*
X191633333Y-96968113D01*
X191633333Y-96968113D02*
X191400000Y-97234780D01*
X191400000Y-97234780D02*
X191500000Y-97234780D01*
X191500000Y-97234780D02*
X191566666Y-97268113D01*
X191566666Y-97268113D02*
X191600000Y-97301446D01*
X191600000Y-97301446D02*
X191633333Y-97368113D01*
X191633333Y-97368113D02*
X191633333Y-97534780D01*
X191633333Y-97534780D02*
X191600000Y-97601446D01*
X191600000Y-97601446D02*
X191566666Y-97634780D01*
X191566666Y-97634780D02*
X191500000Y-97668113D01*
X191500000Y-97668113D02*
X191300000Y-97668113D01*
X191300000Y-97668113D02*
X191233333Y-97634780D01*
X191233333Y-97634780D02*
X191200000Y-97601446D01*
X162396886Y-93366666D02*
X161896886Y-93366666D01*
X161896886Y-93366666D02*
X161796886Y-93333333D01*
X161796886Y-93333333D02*
X161730220Y-93266666D01*
X161730220Y-93266666D02*
X161696886Y-93166666D01*
X161696886Y-93166666D02*
X161696886Y-93100000D01*
X162396886Y-93633333D02*
X162396886Y-94066666D01*
X162396886Y-94066666D02*
X162130220Y-93833333D01*
X162130220Y-93833333D02*
X162130220Y-93933333D01*
X162130220Y-93933333D02*
X162096886Y-93999999D01*
X162096886Y-93999999D02*
X162063553Y-94033333D01*
X162063553Y-94033333D02*
X161996886Y-94066666D01*
X161996886Y-94066666D02*
X161830220Y-94066666D01*
X161830220Y-94066666D02*
X161763553Y-94033333D01*
X161763553Y-94033333D02*
X161730220Y-93999999D01*
X161730220Y-93999999D02*
X161696886Y-93933333D01*
X161696886Y-93933333D02*
X161696886Y-93733333D01*
X161696886Y-93733333D02*
X161730220Y-93666666D01*
X161730220Y-93666666D02*
X161763553Y-93633333D01*
X179383333Y-62168113D02*
X179150000Y-61834780D01*
X178983333Y-62168113D02*
X178983333Y-61468113D01*
X178983333Y-61468113D02*
X179250000Y-61468113D01*
X179250000Y-61468113D02*
X179316667Y-61501446D01*
X179316667Y-61501446D02*
X179350000Y-61534780D01*
X179350000Y-61534780D02*
X179383333Y-61601446D01*
X179383333Y-61601446D02*
X179383333Y-61701446D01*
X179383333Y-61701446D02*
X179350000Y-61768113D01*
X179350000Y-61768113D02*
X179316667Y-61801446D01*
X179316667Y-61801446D02*
X179250000Y-61834780D01*
X179250000Y-61834780D02*
X178983333Y-61834780D01*
X179616667Y-61468113D02*
X180050000Y-61468113D01*
X180050000Y-61468113D02*
X179816667Y-61734780D01*
X179816667Y-61734780D02*
X179916667Y-61734780D01*
X179916667Y-61734780D02*
X179983333Y-61768113D01*
X179983333Y-61768113D02*
X180016667Y-61801446D01*
X180016667Y-61801446D02*
X180050000Y-61868113D01*
X180050000Y-61868113D02*
X180050000Y-62034780D01*
X180050000Y-62034780D02*
X180016667Y-62101446D01*
X180016667Y-62101446D02*
X179983333Y-62134780D01*
X179983333Y-62134780D02*
X179916667Y-62168113D01*
X179916667Y-62168113D02*
X179716667Y-62168113D01*
X179716667Y-62168113D02*
X179650000Y-62134780D01*
X179650000Y-62134780D02*
X179616667Y-62101446D01*
X177249999Y-66001446D02*
X177216666Y-66034780D01*
X177216666Y-66034780D02*
X177116666Y-66068113D01*
X177116666Y-66068113D02*
X177049999Y-66068113D01*
X177049999Y-66068113D02*
X176949999Y-66034780D01*
X176949999Y-66034780D02*
X176883333Y-65968113D01*
X176883333Y-65968113D02*
X176849999Y-65901446D01*
X176849999Y-65901446D02*
X176816666Y-65768113D01*
X176816666Y-65768113D02*
X176816666Y-65668113D01*
X176816666Y-65668113D02*
X176849999Y-65534780D01*
X176849999Y-65534780D02*
X176883333Y-65468113D01*
X176883333Y-65468113D02*
X176949999Y-65401446D01*
X176949999Y-65401446D02*
X177049999Y-65368113D01*
X177049999Y-65368113D02*
X177116666Y-65368113D01*
X177116666Y-65368113D02*
X177216666Y-65401446D01*
X177216666Y-65401446D02*
X177249999Y-65434780D01*
X177916666Y-66068113D02*
X177516666Y-66068113D01*
X177716666Y-66068113D02*
X177716666Y-65368113D01*
X177716666Y-65368113D02*
X177649999Y-65468113D01*
X177649999Y-65468113D02*
X177583333Y-65534780D01*
X177583333Y-65534780D02*
X177516666Y-65568113D01*
X178516666Y-65601446D02*
X178516666Y-66068113D01*
X178350000Y-65334780D02*
X178183333Y-65834780D01*
X178183333Y-65834780D02*
X178616666Y-65834780D01*
X165816667Y-61334780D02*
X165816667Y-61668113D01*
X165583333Y-60968113D02*
X165816667Y-61334780D01*
X165816667Y-61334780D02*
X166050000Y-60968113D01*
X166650000Y-61668113D02*
X166250000Y-61668113D01*
X166450000Y-61668113D02*
X166450000Y-60968113D01*
X166450000Y-60968113D02*
X166383333Y-61068113D01*
X166383333Y-61068113D02*
X166316667Y-61134780D01*
X166316667Y-61134780D02*
X166250000Y-61168113D01*
X189751446Y-93700000D02*
X189784780Y-93733333D01*
X189784780Y-93733333D02*
X189818113Y-93833333D01*
X189818113Y-93833333D02*
X189818113Y-93900000D01*
X189818113Y-93900000D02*
X189784780Y-94000000D01*
X189784780Y-94000000D02*
X189718113Y-94066667D01*
X189718113Y-94066667D02*
X189651446Y-94100000D01*
X189651446Y-94100000D02*
X189518113Y-94133333D01*
X189518113Y-94133333D02*
X189418113Y-94133333D01*
X189418113Y-94133333D02*
X189284780Y-94100000D01*
X189284780Y-94100000D02*
X189218113Y-94066667D01*
X189218113Y-94066667D02*
X189151446Y-94000000D01*
X189151446Y-94000000D02*
X189118113Y-93900000D01*
X189118113Y-93900000D02*
X189118113Y-93833333D01*
X189118113Y-93833333D02*
X189151446Y-93733333D01*
X189151446Y-93733333D02*
X189184780Y-93700000D01*
X189118113Y-93466667D02*
X189118113Y-93033333D01*
X189118113Y-93033333D02*
X189384780Y-93266667D01*
X189384780Y-93266667D02*
X189384780Y-93166667D01*
X189384780Y-93166667D02*
X189418113Y-93100000D01*
X189418113Y-93100000D02*
X189451446Y-93066667D01*
X189451446Y-93066667D02*
X189518113Y-93033333D01*
X189518113Y-93033333D02*
X189684780Y-93033333D01*
X189684780Y-93033333D02*
X189751446Y-93066667D01*
X189751446Y-93066667D02*
X189784780Y-93100000D01*
X189784780Y-93100000D02*
X189818113Y-93166667D01*
X189818113Y-93166667D02*
X189818113Y-93366667D01*
X189818113Y-93366667D02*
X189784780Y-93433333D01*
X189784780Y-93433333D02*
X189751446Y-93466667D01*
X189351446Y-92433333D02*
X189818113Y-92433333D01*
X189084780Y-92600000D02*
X189584780Y-92766666D01*
X189584780Y-92766666D02*
X189584780Y-92333333D01*
X161449999Y-69551446D02*
X161416666Y-69584780D01*
X161416666Y-69584780D02*
X161316666Y-69618113D01*
X161316666Y-69618113D02*
X161249999Y-69618113D01*
X161249999Y-69618113D02*
X161149999Y-69584780D01*
X161149999Y-69584780D02*
X161083333Y-69518113D01*
X161083333Y-69518113D02*
X161049999Y-69451446D01*
X161049999Y-69451446D02*
X161016666Y-69318113D01*
X161016666Y-69318113D02*
X161016666Y-69218113D01*
X161016666Y-69218113D02*
X161049999Y-69084780D01*
X161049999Y-69084780D02*
X161083333Y-69018113D01*
X161083333Y-69018113D02*
X161149999Y-68951446D01*
X161149999Y-68951446D02*
X161249999Y-68918113D01*
X161249999Y-68918113D02*
X161316666Y-68918113D01*
X161316666Y-68918113D02*
X161416666Y-68951446D01*
X161416666Y-68951446D02*
X161449999Y-68984780D01*
X162116666Y-69618113D02*
X161716666Y-69618113D01*
X161916666Y-69618113D02*
X161916666Y-68918113D01*
X161916666Y-68918113D02*
X161849999Y-69018113D01*
X161849999Y-69018113D02*
X161783333Y-69084780D01*
X161783333Y-69084780D02*
X161716666Y-69118113D01*
X162383333Y-68984780D02*
X162416666Y-68951446D01*
X162416666Y-68951446D02*
X162483333Y-68918113D01*
X162483333Y-68918113D02*
X162650000Y-68918113D01*
X162650000Y-68918113D02*
X162716666Y-68951446D01*
X162716666Y-68951446D02*
X162750000Y-68984780D01*
X162750000Y-68984780D02*
X162783333Y-69051446D01*
X162783333Y-69051446D02*
X162783333Y-69118113D01*
X162783333Y-69118113D02*
X162750000Y-69218113D01*
X162750000Y-69218113D02*
X162350000Y-69618113D01*
X162350000Y-69618113D02*
X162783333Y-69618113D01*
D12*
%TO.C,R9*%
X165500000Y-93800000D02*
X165500000Y-95400000D01*
X165500000Y-95400000D02*
X168500000Y-95400000D01*
X168500000Y-93800000D02*
X165500000Y-93800000D01*
X168500000Y-95400000D02*
X168500000Y-93800000D01*
%TO.C,C22*%
X186740000Y-69390580D02*
X186740000Y-69109420D01*
X187760000Y-69390580D02*
X187760000Y-69109420D01*
%TO.C,GND1*%
X155150000Y-84700000D02*
X157050000Y-84700000D01*
X155150000Y-86600000D02*
X155150000Y-84700000D01*
X157050000Y-84700000D02*
X157050000Y-86600000D01*
X157050000Y-86600000D02*
X155150000Y-86600000D01*
%TO.C,C30*%
X165261252Y-85615000D02*
X164738748Y-85615000D01*
X165261252Y-87085000D02*
X164738748Y-87085000D01*
%TO.C,R6*%
X162000000Y-91300000D02*
X162000000Y-92900000D01*
X162000000Y-92900000D02*
X165000000Y-92900000D01*
X165000000Y-91300000D02*
X162000000Y-91300000D01*
X165000000Y-92900000D02*
X165000000Y-91300000D01*
%TO.C,C15*%
X175200000Y-63400002D02*
X177800000Y-63400000D01*
X177800000Y-61799998D02*
X175200000Y-61800000D01*
X175200000Y-63400002D02*
G75*
G02*
X175200000Y-61800000I840224J800001D01*
G01*
X177800000Y-61799998D02*
G75*
G02*
X177800000Y-63400000I-840224J-800001D01*
G01*
%TO.C,C4*%
X165449998Y-62350000D02*
X165450000Y-64950000D01*
X167050002Y-64950000D02*
X167050000Y-62350000D01*
X165449998Y-62350000D02*
G75*
G02*
X167050000Y-62350000I800001J-840224D01*
G01*
X167050002Y-64950000D02*
G75*
G02*
X165450000Y-64950000I-800001J840224D01*
G01*
%TO.C,U3*%
X181525000Y-78740000D02*
X179525000Y-78740000D01*
X181525000Y-81960000D02*
X179525000Y-81960000D01*
X182075000Y-81930000D02*
X182075000Y-81650000D01*
X182355000Y-81650000D01*
X182075000Y-81930000D01*
G36*
X182075000Y-81930000D02*
G01*
X182075000Y-81650000D01*
X182355000Y-81650000D01*
X182075000Y-81930000D01*
G37*
%TO.C,C13*%
X166015000Y-75988748D02*
X166015000Y-76511252D01*
X167485000Y-75988748D02*
X167485000Y-76511252D01*
%TO.C,C32*%
X188740000Y-99459420D02*
X188740000Y-99740580D01*
X189760000Y-99459420D02*
X189760000Y-99740580D01*
%TO.C,FB1*%
X167990000Y-76412779D02*
X167990000Y-76087221D01*
X169010000Y-76412779D02*
X169010000Y-76087221D01*
%TO.C,L1*%
X178649622Y-67690000D02*
X177850378Y-67690000D01*
X178649622Y-68810000D02*
X177850378Y-68810000D01*
%TO.C,C1*%
X170349998Y-62350000D02*
X170350000Y-64950000D01*
X171950002Y-64950000D02*
X171950000Y-62350000D01*
X170349998Y-62350000D02*
G75*
G02*
X171950000Y-62350000I800001J-840224D01*
G01*
X171950002Y-64950000D02*
G75*
G02*
X170350000Y-64950000I-800001J840224D01*
G01*
%TO.C,C27*%
X180238748Y-82365000D02*
X180761252Y-82365000D01*
X180238748Y-83835000D02*
X180761252Y-83835000D01*
%TO.C,C24*%
X179140580Y-77340000D02*
X178859420Y-77340000D01*
X179140580Y-78360000D02*
X178859420Y-78360000D01*
%TO.C,C21*%
X183450000Y-73800002D02*
X186050000Y-73800000D01*
X186050000Y-72199998D02*
X183450000Y-72200000D01*
X183450000Y-73800002D02*
G75*
G02*
X183450000Y-72200000I840224J800001D01*
G01*
X186050000Y-72199998D02*
G75*
G02*
X186050000Y-73800000I-840224J-800001D01*
G01*
%TO.C,D1*%
X188640000Y-75950000D02*
X188640000Y-77950000D01*
X188640000Y-75950000D02*
X192650000Y-75950000D01*
X188640000Y-77950000D02*
X192650000Y-77950000D01*
%TO.C,C6*%
X173738748Y-76015000D02*
X174261252Y-76015000D01*
X173738748Y-77485000D02*
X174261252Y-77485000D01*
%TO.C,L2*%
X177850378Y-72690000D02*
X178649622Y-72690000D01*
X177850378Y-73810000D02*
X178649622Y-73810000D01*
%TO.C,C7*%
X173700000Y-69250002D02*
X176300000Y-69250000D01*
X176300000Y-67649998D02*
X173700000Y-67650000D01*
X173700000Y-69250002D02*
G75*
G02*
X173700000Y-67650000I840224J800001D01*
G01*
X176300000Y-67649998D02*
G75*
G02*
X176300000Y-69250000I-840224J-800001D01*
G01*
%TO.C,R2*%
X172950000Y-62100000D02*
X172950000Y-65100000D01*
X172950000Y-65100000D02*
X174550000Y-65100000D01*
X174550000Y-62100000D02*
X172950000Y-62100000D01*
X174550000Y-65100000D02*
X174550000Y-62100000D01*
%TO.C,R7*%
X162000000Y-94550000D02*
X162000000Y-96150000D01*
X162000000Y-96150000D02*
X165000000Y-96150000D01*
X165000000Y-94550000D02*
X162000000Y-94550000D01*
X165000000Y-96150000D02*
X165000000Y-94550000D01*
%TO.C,SEL0*%
X158050000Y-61800000D02*
X160000000Y-61800000D01*
X158050000Y-67300000D02*
X158050000Y-61800000D01*
X160000000Y-61800000D02*
X160000000Y-67300000D01*
X160000000Y-67300000D02*
X158050000Y-67300000D01*
X160250000Y-65950000D02*
X160550000Y-66250000D01*
X160550000Y-65650000D02*
X160250000Y-65950000D01*
X160550000Y-66250000D02*
X160550000Y-65650000D01*
%TO.C,R11*%
X188800000Y-86825000D02*
X188800000Y-89825000D01*
X188800000Y-89825000D02*
X190400000Y-89825000D01*
X190400000Y-86825000D02*
X188800000Y-86825000D01*
X190400000Y-89825000D02*
X190400000Y-86825000D01*
%TO.C,C28*%
X180415580Y-84590000D02*
X180134420Y-84590000D01*
X180415580Y-85610000D02*
X180134420Y-85610000D01*
%TO.C,C17*%
X179949998Y-70950000D02*
X179950000Y-73550000D01*
X181550002Y-73550000D02*
X181550000Y-70950000D01*
X179949998Y-70950000D02*
G75*
G02*
X181550000Y-70950000I800001J-840224D01*
G01*
X181550002Y-73550000D02*
G75*
G02*
X179950000Y-73550000I-800001J840224D01*
G01*
%TO.C,RST1*%
X191940000Y-93990000D02*
X191940000Y-92890000D01*
X191940000Y-97310000D02*
X191940000Y-96210000D01*
X193460000Y-92890000D02*
X193540000Y-92890000D01*
X193460000Y-97310000D02*
X193540000Y-97310000D01*
%TO.C,C19*%
X181699998Y-70950000D02*
X181700000Y-73550000D01*
X183300002Y-73550000D02*
X183300000Y-70950000D01*
X181699998Y-70950000D02*
G75*
G02*
X183300000Y-70950000I800001J-840224D01*
G01*
X183300002Y-73550000D02*
G75*
G02*
X181700000Y-73550000I-800001J840224D01*
G01*
%TO.C,J1*%
X191865000Y-69350000D02*
X191865000Y-69990000D01*
X191865000Y-69990000D02*
X191235000Y-69990000D01*
X191865000Y-72150000D02*
X191865000Y-71510000D01*
X194585000Y-69400000D02*
X194585000Y-72100000D01*
%TO.C,C8*%
X176450000Y-70650002D02*
X179050000Y-70650000D01*
X179050000Y-69049998D02*
X176450000Y-69050000D01*
X176450000Y-70650002D02*
G75*
G02*
X176450000Y-69050000I840224J800001D01*
G01*
X179050000Y-69049998D02*
G75*
G02*
X179050000Y-70650000I-840224J-800001D01*
G01*
%TO.C,U2*%
X166270000Y-67390000D02*
X166270000Y-67865000D01*
X166270000Y-73610000D02*
X166270000Y-73135000D01*
X166745000Y-67390000D02*
X166270000Y-67390000D01*
X166745000Y-73610000D02*
X166270000Y-73610000D01*
X172015000Y-67390000D02*
X172490000Y-67390000D01*
X172015000Y-73610000D02*
X172190000Y-73610000D01*
X172490000Y-67390000D02*
X172490000Y-67865000D01*
X172490000Y-73135000D02*
X172490000Y-73370000D01*
X172730000Y-73940000D02*
X172250000Y-73940000D01*
X172490000Y-73610000D01*
X172730000Y-73940000D01*
G36*
X172730000Y-73940000D02*
G01*
X172250000Y-73940000D01*
X172490000Y-73610000D01*
X172730000Y-73940000D01*
G37*
%TO.C,R15*%
X153750000Y-69750000D02*
X153750000Y-72750000D01*
X153750000Y-72750000D02*
X155350000Y-72750000D01*
X155350000Y-69750000D02*
X153750000Y-69750000D01*
X155350000Y-72750000D02*
X155350000Y-69750000D01*
%TO.C,C5*%
X172700000Y-75800002D02*
X175300000Y-75800000D01*
X175300000Y-74199998D02*
X172700000Y-74200000D01*
X172700000Y-75800002D02*
G75*
G02*
X172700000Y-74200000I840224J800001D01*
G01*
X175300000Y-74199998D02*
G75*
G02*
X175300000Y-75800000I-840224J-800001D01*
G01*
%TO.C,C26*%
X181859420Y-77340000D02*
X182140580Y-77340000D01*
X181859420Y-78360000D02*
X182140580Y-78360000D01*
%TO.C,C31*%
X161515000Y-83838748D02*
X161515000Y-84361252D01*
X162985000Y-83838748D02*
X162985000Y-84361252D01*
%TO.C,C9*%
X170699998Y-74950000D02*
X170700000Y-77550000D01*
X172300002Y-77550000D02*
X172300000Y-74950000D01*
X170699998Y-74950000D02*
G75*
G02*
X172300000Y-74950000I800001J-840224D01*
G01*
X172300002Y-77550000D02*
G75*
G02*
X170700000Y-77550000I-800001J840224D01*
G01*
%TO.C,C11*%
X177938748Y-70615000D02*
X178461252Y-70615000D01*
X177938748Y-72085000D02*
X178461252Y-72085000D01*
%TO.C,C10*%
X174838748Y-65715000D02*
X175361252Y-65715000D01*
X174838748Y-67185000D02*
X175361252Y-67185000D01*
%TO.C,R1*%
X164500000Y-98550000D02*
X164500000Y-100150000D01*
X164500000Y-100150000D02*
X167500000Y-100150000D01*
X167500000Y-98550000D02*
X164500000Y-98550000D01*
X167500000Y-100150000D02*
X167500000Y-98550000D01*
%TO.C,R5*%
X188250000Y-72200000D02*
X188250000Y-73800000D01*
X188250000Y-73800000D02*
X191250000Y-73800000D01*
X191250000Y-72200000D02*
X188250000Y-72200000D01*
X191250000Y-73800000D02*
X191250000Y-72200000D01*
%TO.C,FB2*%
X169490000Y-76412779D02*
X169490000Y-76087221D01*
X170510000Y-76412779D02*
X170510000Y-76087221D01*
%TO.C,R13*%
X157250000Y-69750000D02*
X157250000Y-72750000D01*
X157250000Y-72750000D02*
X158850000Y-72750000D01*
X158850000Y-69750000D02*
X157250000Y-69750000D01*
X158850000Y-72750000D02*
X158850000Y-69750000D01*
%TO.C,L3*%
X172425000Y-79000000D02*
X172875000Y-79000000D01*
X172425000Y-85200000D02*
X172425000Y-79000000D01*
X172425000Y-85200000D02*
X172875000Y-85200000D01*
X178625000Y-79000000D02*
X178175000Y-79000000D01*
X178625000Y-79000000D02*
X178625000Y-85200000D01*
X178625000Y-85200000D02*
X178175000Y-85200000D01*
%TO.C,D2*%
X167010000Y-87650000D02*
X163350000Y-87650000D01*
X167010000Y-89550000D02*
X163350000Y-89550000D01*
X167010000Y-89550000D02*
X167010000Y-87650000D01*
%TO.C,R8*%
X165500000Y-92050000D02*
X165500000Y-93650000D01*
X165500000Y-93650000D02*
X168500000Y-93650000D01*
X168500000Y-92050000D02*
X165500000Y-92050000D01*
X168500000Y-93650000D02*
X168500000Y-92050000D01*
%TO.C,D3*%
X153600000Y-72950000D02*
X153600000Y-80750000D01*
X157950000Y-72950000D02*
X159100000Y-72950000D01*
X159100000Y-72950000D02*
X159100000Y-80750000D01*
%TO.C,BOOT1*%
X191940000Y-88490000D02*
X191940000Y-87390000D01*
X191940000Y-91810000D02*
X191940000Y-90710000D01*
X193460000Y-87390000D02*
X193540000Y-87390000D01*
X193460000Y-91810000D02*
X193540000Y-91810000D01*
%TO.C,U4*%
X164000000Y-82990000D02*
X166000000Y-82990000D01*
X164000000Y-85210000D02*
X166000000Y-85210000D01*
X163760000Y-83090000D02*
X163480000Y-83090000D01*
X163760000Y-82810000D01*
X163760000Y-83090000D01*
G36*
X163760000Y-83090000D02*
G01*
X163480000Y-83090000D01*
X163760000Y-82810000D01*
X163760000Y-83090000D01*
G37*
%TO.C,C23*%
X186449998Y-70950000D02*
X186450000Y-73550000D01*
X188050002Y-73550000D02*
X188050000Y-70950000D01*
X186449998Y-70950000D02*
G75*
G02*
X188050000Y-70950000I800001J-840224D01*
G01*
X188050002Y-73550000D02*
G75*
G02*
X186450000Y-73550000I-800001J840224D01*
G01*
%TO.C,SEL1*%
X154800000Y-61800000D02*
X156750000Y-61800000D01*
X154800000Y-67300000D02*
X154800000Y-61800000D01*
X156750000Y-61800000D02*
X156750000Y-67300000D01*
X156750000Y-67300000D02*
X154800000Y-67300000D01*
X157000000Y-65950000D02*
X157300000Y-66250000D01*
X157300000Y-65650000D02*
X157000000Y-65950000D01*
X157300000Y-66250000D02*
X157300000Y-65650000D01*
%TO.C,C16*%
X181699998Y-67950000D02*
X181700000Y-70550000D01*
X183300002Y-70550000D02*
X183300000Y-67950000D01*
X181699998Y-67950000D02*
G75*
G02*
X183300000Y-67950000I800001J-840224D01*
G01*
X183300002Y-70550000D02*
G75*
G02*
X181700000Y-70550000I-800001J840224D01*
G01*
%TO.C,J2*%
X188590000Y-80520000D02*
X194910000Y-80520000D01*
X188590000Y-86180000D02*
X188590000Y-80520000D01*
X188590000Y-86180000D02*
X194910000Y-86180000D01*
X189050000Y-86180000D02*
X189050000Y-80520000D01*
X194350000Y-81290000D02*
X194350000Y-80520000D01*
X194350000Y-83830000D02*
X194350000Y-82870000D01*
X194350000Y-86180000D02*
X194350000Y-85410000D01*
X194410000Y-86420000D02*
X195150000Y-86420000D01*
X194910000Y-81290000D02*
X194910000Y-80520000D01*
X194910000Y-83830000D02*
X194910000Y-82870000D01*
X194910000Y-86180000D02*
X194910000Y-85410000D01*
X195150000Y-86420000D02*
X195150000Y-85920000D01*
%TO.C,C20*%
X183700000Y-69300002D02*
X186300000Y-69300000D01*
X186300000Y-67699998D02*
X183700000Y-67700000D01*
X183700000Y-69300002D02*
G75*
G02*
X183700000Y-67700000I840224J800001D01*
G01*
X186300000Y-67699998D02*
G75*
G02*
X186300000Y-69300000I-840224J-800001D01*
G01*
%TO.C,R10*%
X193200000Y-97850000D02*
X193200000Y-100850000D01*
X193200000Y-100850000D02*
X194800000Y-100850000D01*
X194800000Y-97850000D02*
X193200000Y-97850000D01*
X194800000Y-100850000D02*
X194800000Y-97850000D01*
%TO.C,C25*%
X184265000Y-82088748D02*
X184265000Y-82611252D01*
X185735000Y-82088748D02*
X185735000Y-82611252D01*
%TO.C,R4*%
X188250000Y-67700000D02*
X188250000Y-69300000D01*
X188250000Y-69300000D02*
X191250000Y-69300000D01*
X191250000Y-67700000D02*
X188250000Y-67700000D01*
X191250000Y-69300000D02*
X191250000Y-67700000D01*
%TO.C,R12*%
X164500000Y-96850000D02*
X164500000Y-98450000D01*
X164500000Y-98450000D02*
X167500000Y-98450000D01*
X167500000Y-96850000D02*
X164500000Y-96850000D01*
X167500000Y-98450000D02*
X167500000Y-96850000D01*
%TO.C,R14*%
X155500000Y-69750000D02*
X155500000Y-72750000D01*
X155500000Y-72750000D02*
X157100000Y-72750000D01*
X157100000Y-69750000D02*
X155500000Y-69750000D01*
X157100000Y-72750000D02*
X157100000Y-69750000D01*
%TO.C,U1*%
X169550000Y-87740000D02*
X169550000Y-87440000D01*
X169550000Y-107660000D02*
X169550000Y-101160000D01*
X187770000Y-87440000D02*
X169550000Y-87440000D01*
X187770000Y-87740000D02*
X187770000Y-87440000D01*
X187770000Y-107660000D02*
X169550000Y-107660000D01*
X187770000Y-107660000D02*
X187770000Y-101850000D01*
X187760000Y-101650000D02*
X187760000Y-101150000D01*
X188260000Y-101150000D01*
X187760000Y-101650000D01*
G36*
X187760000Y-101650000D02*
G01*
X187760000Y-101150000D01*
X188260000Y-101150000D01*
X187760000Y-101650000D01*
G37*
%TO.C,RX1*%
X157650000Y-82100000D02*
X159550000Y-82100000D01*
X157650000Y-84000000D02*
X157650000Y-82100000D01*
X159550000Y-82100000D02*
X159550000Y-84000000D01*
X159550000Y-84000000D02*
X157650000Y-84000000D01*
%TO.C,C3*%
X186265000Y-82088748D02*
X186265000Y-82611252D01*
X187735000Y-82088748D02*
X187735000Y-82611252D01*
%TO.C,C2*%
X182740000Y-81490580D02*
X182740000Y-81209420D01*
X183760000Y-81490580D02*
X183760000Y-81209420D01*
%TO.C,TX1*%
X155150000Y-82100000D02*
X157050000Y-82100000D01*
X155150000Y-84000000D02*
X155150000Y-82100000D01*
X157050000Y-82100000D02*
X157050000Y-84000000D01*
X157050000Y-84000000D02*
X155150000Y-84000000D01*
%TO.C,C18*%
X179949998Y-67950000D02*
X179950000Y-70550000D01*
X181550002Y-70550000D02*
X181550000Y-67950000D01*
X179949998Y-67950000D02*
G75*
G02*
X181550000Y-67950000I800001J-840224D01*
G01*
X181550002Y-70550000D02*
G75*
G02*
X179950000Y-70550000I-800001J840224D01*
G01*
%TO.C,C33*%
X190265000Y-99861252D02*
X190265000Y-99338748D01*
X191735000Y-99861252D02*
X191735000Y-99338748D01*
%TO.C,J3*%
X157435000Y-89020000D02*
X158845000Y-89020000D01*
X157435000Y-98180000D02*
X158845000Y-98180000D01*
X161515000Y-89840000D02*
X161365000Y-89840000D01*
X161515000Y-90640000D02*
X161515000Y-89840000D01*
%TO.C,R3*%
X178700000Y-62350000D02*
X178700000Y-65350000D01*
X178700000Y-65350000D02*
X180300000Y-65350000D01*
X180300000Y-62350000D02*
X178700000Y-62350000D01*
X180300000Y-65350000D02*
X180300000Y-62350000D01*
%TO.C,C14*%
X175200000Y-65150002D02*
X177800000Y-65150000D01*
X177800000Y-63549998D02*
X175200000Y-63550000D01*
X175200000Y-65150002D02*
G75*
G02*
X175200000Y-63550000I840224J800001D01*
G01*
X177800000Y-63549998D02*
G75*
G02*
X177800000Y-65150000I-840224J-800001D01*
G01*
%TO.C,Y1*%
X167100000Y-65550000D02*
X170400000Y-65550000D01*
X170400000Y-65550000D02*
X170400000Y-61550000D01*
%TO.C,C34*%
X190240000Y-92740580D02*
X190240000Y-92459420D01*
X191260000Y-92740580D02*
X191260000Y-92459420D01*
%TO.C,C12*%
X164109420Y-68740000D02*
X164390580Y-68740000D01*
X164109420Y-69760000D02*
X164390580Y-69760000D01*
%TD*%
M02*
