M48
; DRILL file {KiCad 8.0.3} date 2024-07-12T15:36:25+0200
; FORMAT={-:-/ absolute / inch / decimal}
; #@! TF.CreationDate,2024-07-12T15:36:25+02:00
; #@! TF.GenerationSoftware,Kicad,Pcbnew,8.0.3
; #@! TF.FileFunction,Plated,1,2,PTH
FMAT,2
INCH
; #@! TA.AperFunction,Plated,PTH,ViaDrill
T1C0.0118
; #@! TA.AperFunction,Plated,PTH,ComponentDrill
T2C0.0118
; #@! TA.AperFunction,Plated,PTH,ComponentDrill
T3C0.0276
; #@! TA.AperFunction,Plated,PTH,ComponentDrill
T4C0.0433
; #@! TA.AperFunction,Plated,PTH,ViaDrill
T5C0.1260
%
G90
G05
T1
X6.0571Y-3.628
X6.0787Y-3.0157
X6.1024Y-3.6043
X6.122Y-2.7008
X6.1339Y-2.5413
X6.1378Y-2.4252
X6.1575Y-3.5669
X6.1575Y-3.7244
X6.1575Y-3.8031
X6.1929Y-2.7008
X6.1969Y-3.0157
X6.1988Y-3.2106
X6.1988Y-3.7657
X6.2224Y-3.3327
X6.2224Y-3.7382
X6.2303Y-3.1752
X6.2362Y-3.8425
X6.25Y-3.5413
X6.2559Y-2.4252
X6.2618Y-2.5413
X6.2638Y-2.6575
X6.2756Y-2.8189
X6.2854Y-2.7106
X6.3012Y-3.372
X6.313Y-2.7657
X6.3248Y-3.4193
X6.3346Y-2.8602
X6.3563Y-2.935
X6.3563Y-3.4055
X6.374Y-2.7992
X6.374Y-3.4882
X6.3937Y-3.9213
X6.4232Y-2.9665
X6.4232Y-3.0157
X6.4232Y-3.065
X6.4232Y-3.1142
X6.4331Y-3.2598
X6.4587Y-3.1437
X6.4606Y-3.2598
X6.4685Y-3.9094
X6.4862Y-3.2343
X6.4921Y-3.4882
X6.4961Y-2.6614
X6.4961Y-3.311
X6.5118Y-3.2598
X6.5138Y-3.2106
X6.5177Y-2.7657
X6.5177Y-2.7992
X6.5177Y-2.8287
X6.5182Y-2.8583
X6.5886Y-3.1437
X6.5886Y-3.3327
X6.6102Y-3.4882
X6.6201Y-2.7795
X6.628Y-2.6122
X6.6339Y-3.0728
X6.6339Y-3.0984
X6.6398Y-3.1791
X6.6567Y-2.6201
X6.6693Y-2.4055
X6.6693Y-2.7303
X6.6693Y-2.7795
X6.6693Y-2.8287
X6.689Y-3.3307
X6.7028Y-3.0709
X6.7028Y-3.1004
X6.7028Y-3.1299
X6.7087Y-3.1929
X6.7146Y-2.935
X6.7185Y-2.7795
X6.7283Y-2.6024
X6.75Y-3.5413
X6.75Y-3.6004
X6.7559Y-3.2343
X6.7736Y-3.3799
X6.7874Y-3.126
X6.7874Y-3.1575
X6.7874Y-3.189
X6.7874Y-3.2244
X6.7953Y-3.4035
X6.8169Y-3.424
X6.8209Y-3.8327
X6.8465Y-3.5945
X6.8504Y-2.7854
X6.8563Y-2.5728
X6.8563Y-2.6594
X6.878Y-3.5118
X6.8799Y-2.7854
X6.9055Y-3.9094
X6.9094Y-2.7854
X6.9104Y-3.314
X6.9449Y-3.4488
X6.9449Y-3.5669
X6.9449Y-3.8819
X7.0236Y-2.5039
X7.0236Y-2.5433
X7.0236Y-3.4488
X7.0236Y-3.5669
X7.0236Y-3.8819
X7.0335Y-3.0059
X7.0728Y-2.75
X7.1024Y-3.4488
X7.1024Y-3.5669
X7.1024Y-3.685
X7.1024Y-3.8819
X7.1063Y-3.1319
X7.1063Y-3.1929
X7.1417Y-2.5433
X7.1742Y-3.1142
X7.1811Y-2.5433
X7.1811Y-3.4488
X7.1811Y-3.5669
X7.1811Y-3.685
X7.1811Y-3.8819
X7.2205Y-2.5433
X7.2402Y-2.7598
X7.2402Y-2.7992
X7.25Y-3.0059
X7.2598Y-2.5433
X7.2598Y-2.5827
X7.2598Y-3.4488
X7.2598Y-3.5669
X7.2598Y-3.685
X7.2598Y-3.8819
X7.2795Y-2.7598
X7.2795Y-2.7992
X7.2913Y-3.5945
X7.3189Y-2.7598
X7.3189Y-2.7992
X7.3287Y-3.7146
X7.3287Y-3.7776
X7.3307Y-3.6004
X7.3327Y-3.8366
X7.3327Y-3.8917
X7.3386Y-3.4094
X7.4173Y-2.7598
X7.4173Y-2.7992
X7.4291Y-3.5118
X7.4567Y-2.7598
X7.4567Y-2.7992
X7.4961Y-2.7598
X7.4961Y-2.7992
X7.5492Y-3.8248
X7.5748Y-3.4094
X7.6142Y-3.4094
T2
X6.9551Y-3.6791
X6.9551Y-3.7264
X6.9709Y-3.7028
X6.9709Y-3.75
X6.9866Y-3.6791
X6.9866Y-3.7264
X7.0024Y-3.7028
X7.0024Y-3.75
X7.0181Y-3.6791
X7.0181Y-3.7264
X7.0339Y-3.7028
X7.0339Y-3.75
T3
X6.1457Y-3.2697
X6.1457Y-3.372
X6.2441Y-3.2697
T4
X7.5492Y-3.2315
X7.5492Y-3.3315
T5
X6.1378Y-4.1378
X6.3937Y-2.4843
X7.5748Y-2.4843
X7.5748Y-4.1378
M30
