%TF.GenerationSoftware,KiCad,Pcbnew,8.0.3*%
%TF.CreationDate,2024-07-12T15:36:06+02:00*%
%TF.ProjectId,Homekey,486f6d65-6b65-4792-9e6b-696361645f70,rev?*%
%TF.SameCoordinates,Original*%
%TF.FileFunction,Legend,Bot*%
%TF.FilePolarity,Positive*%
%FSLAX46Y46*%
G04 Gerber Fmt 4.6, Leading zero omitted, Abs format (unit mm)*
G04 Created by KiCad (PCBNEW 8.0.3) date 2024-07-12 15:36:06*
%MOMM*%
%LPD*%
G01*
G04 APERTURE LIST*
%ADD10C,0.150000*%
G04 APERTURE END LIST*
D10*
X189563220Y-61859875D02*
X189563220Y-60859875D01*
X189563220Y-60859875D02*
X189229887Y-61574160D01*
X189229887Y-61574160D02*
X188896554Y-60859875D01*
X188896554Y-60859875D02*
X188896554Y-61859875D01*
X187991792Y-61859875D02*
X187991792Y-61336065D01*
X187991792Y-61336065D02*
X188039411Y-61240827D01*
X188039411Y-61240827D02*
X188134649Y-61193208D01*
X188134649Y-61193208D02*
X188325125Y-61193208D01*
X188325125Y-61193208D02*
X188420363Y-61240827D01*
X187991792Y-61812256D02*
X188087030Y-61859875D01*
X188087030Y-61859875D02*
X188325125Y-61859875D01*
X188325125Y-61859875D02*
X188420363Y-61812256D01*
X188420363Y-61812256D02*
X188467982Y-61717017D01*
X188467982Y-61717017D02*
X188467982Y-61621779D01*
X188467982Y-61621779D02*
X188420363Y-61526541D01*
X188420363Y-61526541D02*
X188325125Y-61478922D01*
X188325125Y-61478922D02*
X188087030Y-61478922D01*
X188087030Y-61478922D02*
X187991792Y-61431303D01*
X187087030Y-61859875D02*
X187087030Y-60859875D01*
X187087030Y-61812256D02*
X187182268Y-61859875D01*
X187182268Y-61859875D02*
X187372744Y-61859875D01*
X187372744Y-61859875D02*
X187467982Y-61812256D01*
X187467982Y-61812256D02*
X187515601Y-61764636D01*
X187515601Y-61764636D02*
X187563220Y-61669398D01*
X187563220Y-61669398D02*
X187563220Y-61383684D01*
X187563220Y-61383684D02*
X187515601Y-61288446D01*
X187515601Y-61288446D02*
X187467982Y-61240827D01*
X187467982Y-61240827D02*
X187372744Y-61193208D01*
X187372744Y-61193208D02*
X187182268Y-61193208D01*
X187182268Y-61193208D02*
X187087030Y-61240827D01*
X186229887Y-61812256D02*
X186325125Y-61859875D01*
X186325125Y-61859875D02*
X186515601Y-61859875D01*
X186515601Y-61859875D02*
X186610839Y-61812256D01*
X186610839Y-61812256D02*
X186658458Y-61717017D01*
X186658458Y-61717017D02*
X186658458Y-61336065D01*
X186658458Y-61336065D02*
X186610839Y-61240827D01*
X186610839Y-61240827D02*
X186515601Y-61193208D01*
X186515601Y-61193208D02*
X186325125Y-61193208D01*
X186325125Y-61193208D02*
X186229887Y-61240827D01*
X186229887Y-61240827D02*
X186182268Y-61336065D01*
X186182268Y-61336065D02*
X186182268Y-61431303D01*
X186182268Y-61431303D02*
X186658458Y-61526541D01*
X185134648Y-61193208D02*
X184753696Y-61193208D01*
X184991791Y-60859875D02*
X184991791Y-61717017D01*
X184991791Y-61717017D02*
X184944172Y-61812256D01*
X184944172Y-61812256D02*
X184848934Y-61859875D01*
X184848934Y-61859875D02*
X184753696Y-61859875D01*
X184277505Y-61859875D02*
X184372743Y-61812256D01*
X184372743Y-61812256D02*
X184420362Y-61764636D01*
X184420362Y-61764636D02*
X184467981Y-61669398D01*
X184467981Y-61669398D02*
X184467981Y-61383684D01*
X184467981Y-61383684D02*
X184420362Y-61288446D01*
X184420362Y-61288446D02*
X184372743Y-61240827D01*
X184372743Y-61240827D02*
X184277505Y-61193208D01*
X184277505Y-61193208D02*
X184134648Y-61193208D01*
X184134648Y-61193208D02*
X184039410Y-61240827D01*
X184039410Y-61240827D02*
X183991791Y-61288446D01*
X183991791Y-61288446D02*
X183944172Y-61383684D01*
X183944172Y-61383684D02*
X183944172Y-61669398D01*
X183944172Y-61669398D02*
X183991791Y-61764636D01*
X183991791Y-61764636D02*
X184039410Y-61812256D01*
X184039410Y-61812256D02*
X184134648Y-61859875D01*
X184134648Y-61859875D02*
X184277505Y-61859875D01*
X182753695Y-61859875D02*
X182753695Y-60859875D01*
X182277505Y-61859875D02*
X182277505Y-61193208D01*
X182277505Y-61288446D02*
X182229886Y-61240827D01*
X182229886Y-61240827D02*
X182134648Y-61193208D01*
X182134648Y-61193208D02*
X181991791Y-61193208D01*
X181991791Y-61193208D02*
X181896553Y-61240827D01*
X181896553Y-61240827D02*
X181848934Y-61336065D01*
X181848934Y-61336065D02*
X181848934Y-61859875D01*
X181848934Y-61336065D02*
X181801315Y-61240827D01*
X181801315Y-61240827D02*
X181706077Y-61193208D01*
X181706077Y-61193208D02*
X181563220Y-61193208D01*
X181563220Y-61193208D02*
X181467981Y-61240827D01*
X181467981Y-61240827D02*
X181420362Y-61336065D01*
X181420362Y-61336065D02*
X181420362Y-61859875D01*
X180944172Y-61193208D02*
X180944172Y-62193208D01*
X180944172Y-61240827D02*
X180848934Y-61193208D01*
X180848934Y-61193208D02*
X180658458Y-61193208D01*
X180658458Y-61193208D02*
X180563220Y-61240827D01*
X180563220Y-61240827D02*
X180515601Y-61288446D01*
X180515601Y-61288446D02*
X180467982Y-61383684D01*
X180467982Y-61383684D02*
X180467982Y-61669398D01*
X180467982Y-61669398D02*
X180515601Y-61764636D01*
X180515601Y-61764636D02*
X180563220Y-61812256D01*
X180563220Y-61812256D02*
X180658458Y-61859875D01*
X180658458Y-61859875D02*
X180848934Y-61859875D01*
X180848934Y-61859875D02*
X180944172Y-61812256D01*
X180039410Y-61859875D02*
X180039410Y-61193208D01*
X180039410Y-61383684D02*
X179991791Y-61288446D01*
X179991791Y-61288446D02*
X179944172Y-61240827D01*
X179944172Y-61240827D02*
X179848934Y-61193208D01*
X179848934Y-61193208D02*
X179753696Y-61193208D01*
X179039410Y-61812256D02*
X179134648Y-61859875D01*
X179134648Y-61859875D02*
X179325124Y-61859875D01*
X179325124Y-61859875D02*
X179420362Y-61812256D01*
X179420362Y-61812256D02*
X179467981Y-61717017D01*
X179467981Y-61717017D02*
X179467981Y-61336065D01*
X179467981Y-61336065D02*
X179420362Y-61240827D01*
X179420362Y-61240827D02*
X179325124Y-61193208D01*
X179325124Y-61193208D02*
X179134648Y-61193208D01*
X179134648Y-61193208D02*
X179039410Y-61240827D01*
X179039410Y-61240827D02*
X178991791Y-61336065D01*
X178991791Y-61336065D02*
X178991791Y-61431303D01*
X178991791Y-61431303D02*
X179467981Y-61526541D01*
X178610838Y-61812256D02*
X178515600Y-61859875D01*
X178515600Y-61859875D02*
X178325124Y-61859875D01*
X178325124Y-61859875D02*
X178229886Y-61812256D01*
X178229886Y-61812256D02*
X178182267Y-61717017D01*
X178182267Y-61717017D02*
X178182267Y-61669398D01*
X178182267Y-61669398D02*
X178229886Y-61574160D01*
X178229886Y-61574160D02*
X178325124Y-61526541D01*
X178325124Y-61526541D02*
X178467981Y-61526541D01*
X178467981Y-61526541D02*
X178563219Y-61478922D01*
X178563219Y-61478922D02*
X178610838Y-61383684D01*
X178610838Y-61383684D02*
X178610838Y-61336065D01*
X178610838Y-61336065D02*
X178563219Y-61240827D01*
X178563219Y-61240827D02*
X178467981Y-61193208D01*
X178467981Y-61193208D02*
X178325124Y-61193208D01*
X178325124Y-61193208D02*
X178229886Y-61240827D01*
X177801314Y-61812256D02*
X177706076Y-61859875D01*
X177706076Y-61859875D02*
X177515600Y-61859875D01*
X177515600Y-61859875D02*
X177420362Y-61812256D01*
X177420362Y-61812256D02*
X177372743Y-61717017D01*
X177372743Y-61717017D02*
X177372743Y-61669398D01*
X177372743Y-61669398D02*
X177420362Y-61574160D01*
X177420362Y-61574160D02*
X177515600Y-61526541D01*
X177515600Y-61526541D02*
X177658457Y-61526541D01*
X177658457Y-61526541D02*
X177753695Y-61478922D01*
X177753695Y-61478922D02*
X177801314Y-61383684D01*
X177801314Y-61383684D02*
X177801314Y-61336065D01*
X177801314Y-61336065D02*
X177753695Y-61240827D01*
X177753695Y-61240827D02*
X177658457Y-61193208D01*
X177658457Y-61193208D02*
X177515600Y-61193208D01*
X177515600Y-61193208D02*
X177420362Y-61240827D01*
X189229887Y-62946009D02*
X189087030Y-62993628D01*
X189087030Y-62993628D02*
X189039411Y-63041247D01*
X189039411Y-63041247D02*
X188991792Y-63136485D01*
X188991792Y-63136485D02*
X188991792Y-63279342D01*
X188991792Y-63279342D02*
X189039411Y-63374580D01*
X189039411Y-63374580D02*
X189087030Y-63422200D01*
X189087030Y-63422200D02*
X189182268Y-63469819D01*
X189182268Y-63469819D02*
X189563220Y-63469819D01*
X189563220Y-63469819D02*
X189563220Y-62469819D01*
X189563220Y-62469819D02*
X189229887Y-62469819D01*
X189229887Y-62469819D02*
X189134649Y-62517438D01*
X189134649Y-62517438D02*
X189087030Y-62565057D01*
X189087030Y-62565057D02*
X189039411Y-62660295D01*
X189039411Y-62660295D02*
X189039411Y-62755533D01*
X189039411Y-62755533D02*
X189087030Y-62850771D01*
X189087030Y-62850771D02*
X189134649Y-62898390D01*
X189134649Y-62898390D02*
X189229887Y-62946009D01*
X189229887Y-62946009D02*
X189563220Y-62946009D01*
X188134649Y-62803152D02*
X188134649Y-63469819D01*
X188563220Y-62803152D02*
X188563220Y-63326961D01*
X188563220Y-63326961D02*
X188515601Y-63422200D01*
X188515601Y-63422200D02*
X188420363Y-63469819D01*
X188420363Y-63469819D02*
X188277506Y-63469819D01*
X188277506Y-63469819D02*
X188182268Y-63422200D01*
X188182268Y-63422200D02*
X188134649Y-63374580D01*
X187658458Y-63469819D02*
X187658458Y-62803152D01*
X187658458Y-62469819D02*
X187706077Y-62517438D01*
X187706077Y-62517438D02*
X187658458Y-62565057D01*
X187658458Y-62565057D02*
X187610839Y-62517438D01*
X187610839Y-62517438D02*
X187658458Y-62469819D01*
X187658458Y-62469819D02*
X187658458Y-62565057D01*
X187039411Y-63469819D02*
X187134649Y-63422200D01*
X187134649Y-63422200D02*
X187182268Y-63326961D01*
X187182268Y-63326961D02*
X187182268Y-62469819D01*
X186229887Y-63469819D02*
X186229887Y-62469819D01*
X186229887Y-63422200D02*
X186325125Y-63469819D01*
X186325125Y-63469819D02*
X186515601Y-63469819D01*
X186515601Y-63469819D02*
X186610839Y-63422200D01*
X186610839Y-63422200D02*
X186658458Y-63374580D01*
X186658458Y-63374580D02*
X186706077Y-63279342D01*
X186706077Y-63279342D02*
X186706077Y-62993628D01*
X186706077Y-62993628D02*
X186658458Y-62898390D01*
X186658458Y-62898390D02*
X186610839Y-62850771D01*
X186610839Y-62850771D02*
X186515601Y-62803152D01*
X186515601Y-62803152D02*
X186325125Y-62803152D01*
X186325125Y-62803152D02*
X186229887Y-62850771D01*
X185134648Y-62803152D02*
X184753696Y-62803152D01*
X184991791Y-62469819D02*
X184991791Y-63326961D01*
X184991791Y-63326961D02*
X184944172Y-63422200D01*
X184944172Y-63422200D02*
X184848934Y-63469819D01*
X184848934Y-63469819D02*
X184753696Y-63469819D01*
X184277505Y-63469819D02*
X184372743Y-63422200D01*
X184372743Y-63422200D02*
X184420362Y-63374580D01*
X184420362Y-63374580D02*
X184467981Y-63279342D01*
X184467981Y-63279342D02*
X184467981Y-62993628D01*
X184467981Y-62993628D02*
X184420362Y-62898390D01*
X184420362Y-62898390D02*
X184372743Y-62850771D01*
X184372743Y-62850771D02*
X184277505Y-62803152D01*
X184277505Y-62803152D02*
X184134648Y-62803152D01*
X184134648Y-62803152D02*
X184039410Y-62850771D01*
X184039410Y-62850771D02*
X183991791Y-62898390D01*
X183991791Y-62898390D02*
X183944172Y-62993628D01*
X183944172Y-62993628D02*
X183944172Y-63279342D01*
X183944172Y-63279342D02*
X183991791Y-63374580D01*
X183991791Y-63374580D02*
X184039410Y-63422200D01*
X184039410Y-63422200D02*
X184134648Y-63469819D01*
X184134648Y-63469819D02*
X184277505Y-63469819D01*
X182753695Y-62946009D02*
X182420362Y-62946009D01*
X182277505Y-63469819D02*
X182753695Y-63469819D01*
X182753695Y-63469819D02*
X182753695Y-62469819D01*
X182753695Y-62469819D02*
X182277505Y-62469819D01*
X181944171Y-63469819D02*
X181420362Y-62803152D01*
X181944171Y-62803152D02*
X181420362Y-63469819D01*
X180610838Y-63422200D02*
X180706076Y-63469819D01*
X180706076Y-63469819D02*
X180896552Y-63469819D01*
X180896552Y-63469819D02*
X180991790Y-63422200D01*
X180991790Y-63422200D02*
X181039409Y-63374580D01*
X181039409Y-63374580D02*
X181087028Y-63279342D01*
X181087028Y-63279342D02*
X181087028Y-62993628D01*
X181087028Y-62993628D02*
X181039409Y-62898390D01*
X181039409Y-62898390D02*
X180991790Y-62850771D01*
X180991790Y-62850771D02*
X180896552Y-62803152D01*
X180896552Y-62803152D02*
X180706076Y-62803152D01*
X180706076Y-62803152D02*
X180610838Y-62850771D01*
X179801314Y-63422200D02*
X179896552Y-63469819D01*
X179896552Y-63469819D02*
X180087028Y-63469819D01*
X180087028Y-63469819D02*
X180182266Y-63422200D01*
X180182266Y-63422200D02*
X180229885Y-63326961D01*
X180229885Y-63326961D02*
X180229885Y-62946009D01*
X180229885Y-62946009D02*
X180182266Y-62850771D01*
X180182266Y-62850771D02*
X180087028Y-62803152D01*
X180087028Y-62803152D02*
X179896552Y-62803152D01*
X179896552Y-62803152D02*
X179801314Y-62850771D01*
X179801314Y-62850771D02*
X179753695Y-62946009D01*
X179753695Y-62946009D02*
X179753695Y-63041247D01*
X179753695Y-63041247D02*
X180229885Y-63136485D01*
X179182266Y-63469819D02*
X179277504Y-63422200D01*
X179277504Y-63422200D02*
X179325123Y-63326961D01*
X179325123Y-63326961D02*
X179325123Y-62469819D01*
M02*
